<svg xmlns="http://www.w3.org/2000/svg" viewBox="0 0 34.29 10.91"><defs><style>.cls-1{fill:#fff;fill-rule:evenodd;}</style></defs><title>amercanexpress-logo-b</title><g id="Capa_2" data-name="Capa 2"><g id="Capa_1-2" data-name="Capa 1"><path id="_Trazado_compuesto_" data-name="&lt;Trazado compuesto&gt;" class="cls-1" d="M34.29,9.66c0,.85-.55,1.26-1.52,1.26H30.92v-.85h1.85a.57.57,0,0,0,.37-.09.37.37,0,0,0,.12-.25.39.39,0,0,0-.12-.28.47.47,0,0,0-.34-.09c-.88,0-2,0-2-1.24a1.2,1.2,0,0,1,1.37-1.2h1.91v.85H32.32a.62.62,0,0,0-.37.06.42.42,0,0,0-.15.31.3.3,0,0,0,.19.28,1.51,1.51,0,0,0,.37.06h.52A1.7,1.7,0,0,1,34,8.79a1.31,1.31,0,0,1,.28.87m-4-.87a1.7,1.7,0,0,0-1.12-.31h-.52a1.49,1.49,0,0,1-.37-.06.3.3,0,0,1-.19-.28.34.34,0,0,1,.15-.31.62.62,0,0,1,.37-.06h1.76V6.91H28.43c-1,0-1.37.63-1.37,1.2,0,1.27,1.12,1.21,2,1.24a.47.47,0,0,1,.34.09.39.39,0,0,1,.12.28.38.38,0,0,1-.12.25.63.63,0,0,1-.37.09H27.18v.85H29c1,0,1.52-.4,1.52-1.26a1.31,1.31,0,0,0-.28-.87m-3.67,1.3H24.34V9.28h2.21V8.48H24.34V7.74H26.6V6.91H23.4v4H26.6Zm-4.22-3a2.5,2.5,0,0,0-1.18-.19H19v4h1V9.45h1c.34,0,.54,0,.69.18a1.32,1.32,0,0,1,.16.81v.48h1v-.78a1.25,1.25,0,0,0-.15-.73,1,1,0,0,0-.49-.34A1.1,1.1,0,0,0,22.85,8a.91.91,0,0,0-.48-.9m-5.43-.19H13.89L12.65,8.22,11.49,6.91H7.62v4h3.8L12.65,9.6l1.18,1.32h1.85V9.57h1.21c.82,0,1.66-.22,1.66-1.35s-.85-1.32-1.6-1.32M21.6,8.56a1.15,1.15,0,0,1-.46.06L20,8.65V7.74h1.16a.89.89,0,0,1,.46.07.36.36,0,0,1,.19.34.48.48,0,0,1-.19.4m-4.65.19H15.68v-1h1.27c.34,0,.57.13.57.48a.51.51,0,0,1-.57.54m-3.68.15,1.48-1.57v3.23Zm-2.33,1.18H8.56V9.28h2.12V8.48H8.56V7.74H11L12,8.91ZM31.64,4H30.27L28.46,1V4H26.52l-.37-.88h-2L23.78,4H22.66a2.05,2.05,0,0,1-1.4-.45A2.12,2.12,0,0,1,20.76,2,2.12,2.12,0,0,1,21.29.46,2,2,0,0,1,22.75,0h.91V.87h-.91a1,1,0,0,0-.75.22,1.28,1.28,0,0,0-.25.91A1.44,1.44,0,0,0,22,3a1,1,0,0,0,.66.19h.43L24.46,0h1.42l1.61,3.78V0H29l1.69,2.78V0h1ZM20.29,0h-1V4h1Zm-2,.18A2.22,2.22,0,0,0,17.11,0H14.92V4h.94V2.56h1a1,1,0,0,1,.72.16,1.29,1.29,0,0,1,.13.78V4h1V3.21a1,1,0,0,0-.18-.72,1.17,1.17,0,0,0-.46-.34,1.13,1.13,0,0,0,.69-1.06,1,1,0,0,0-.51-.91m-4,3H12V2.38H14.2V1.55H12V.84h2.24V0H11V4h3.21ZM10.31,0H8.74L7.56,2.72,6.31,0H4.77V3.78L3.13,0H1.72L0,4H1l.36-.88h2L3.76,4h2V.87L7.12,4h.82L9.34.87V4h1ZM25.8,2.27,25.15.69l-.66,1.58Zm-8.29-.64a.83.83,0,0,1-.48.09H15.86V.84H17a1.2,1.2,0,0,1,.48.06.4.4,0,0,1,.18.37.36.36,0,0,1-.18.36M1.73,2.27,2.4.69l.66,1.58Z"/></g></g></svg>