<?xml version="1.0" encoding="utf-8"?>
<!-- Generator: Adobe Illustrator 21.1.0, SVG Export Plug-In . SVG Version: 6.00 Build 0)  -->
<svg version="1.1" id="Capa_1" xmlns="http://www.w3.org/2000/svg" xmlns:xlink="http://www.w3.org/1999/xlink" x="0px" y="0px"
	 viewBox="0 0 150 150" style="enable-background:new 0 0 150 150;" xml:space="preserve">
<style type="text/css">
	.st0{fill:#FFFFFF;}
</style>
<g>
	<g>
		<path class="st0" d="M109.1,105.8l0.2-0.2c9.2-9.2,14.2-21.4,14.2-34.3c0-3.8-0.5-7.6-1.4-11.2c0-0.3-0.1-0.7-0.2-1
			c-2.1-8.3-6.4-15.9-12.6-22.1l-0.2-0.2h0c-9.1-9-21.2-14-34.1-14c-13,0-25.2,5-34.3,14.2C34.5,43.1,30.2,50.7,28.1,59
			c0,0.1,0,0.2-0.1,0.3c-1,3.9-1.5,7.9-1.5,11.9c0,13,5,25.1,14.2,34.3l0.2,0.2c9.1,9,21.2,14,34.1,14
			C87.9,119.8,100,114.8,109.1,105.8z M43.6,61.7c4.4-1.4,8-3.9,11.3-7.9c1-1.3,0.8-3.1-0.4-4.2c-1.3-1-3.1-0.9-4.2,0.4
			c-2.6,3.1-5.3,5-8.5,6.1c-2.1,0.7-4.4,0.9-7.1,1.1c2.1-6,5.5-11.4,10-16c3-3,6.4-5.5,10.1-7.5v3.8c0,6.8,2.7,13.3,7.6,18.2
			c4.9,4.9,11.3,7.6,18.2,7.6h36.1c0.5,2.6,0.8,5.3,0.8,8.1c0,11.4-4.4,22.1-12.5,30.1c-8,8-18.7,12.5-30.1,12.5
			c-11.4,0-22.1-4.4-30.2-12.5c-8-8.1-12.5-18.8-12.5-30.1c0-2.8,0.3-5.5,0.8-8.1C37.1,63,40.5,62.7,43.6,61.7z M80.7,57.2
			c-5.3,0-10.2-2.1-14-5.8c-3.8-3.8-5.8-8.7-5.8-14v-6.3c4.5-1.6,9.2-2.4,14.1-2.4c11.3,0,21.9,4.3,29.9,12.2l0.2,0.2
			c4.6,4.6,8,10.1,10.1,16.1H80.7z"/>
		<path class="st0" d="M60.6,105.5c2.4,1,4.7,1.7,7,2.2c2.4,0.5,4.9,0.8,7.4,0.8c2.5,0,5-0.3,7.4-0.8c2.3-0.5,4.7-1.2,7.1-2.2
			c1.5-0.6,2.2-2.4,1.6-3.9c-0.6-1.5-2.4-2.2-3.9-1.6c-1.9,0.8-3.9,1.4-5.9,1.8c-3.9,0.8-8.6,0.8-12.4,0c-2-0.4-4-1-5.9-1.8
			c-1.5-0.6-3.3,0.1-3.9,1.6C58.3,103.1,59.1,104.8,60.6,105.5z"/>
		<path class="st0" d="M128.6,91.1c-0.7-0.3-1.5-0.3-2.3,0c-0.7,0.3-1.3,0.9-1.6,1.6c-0.4,0.9-0.7,1.7-1.1,2.4
			c-0.4,0.8-0.8,1.6-1.2,2.4c-0.4,0.8-0.9,1.5-1.3,2.3c-0.4,0.7-0.9,1.5-1.4,2.2c-0.5,0.7-1,1.4-1.6,2.2c-0.5,0.6-1,1.3-1.5,1.9
			c-0.6,0.7-1.1,1.3-1.7,2c-0.5,0.6-1.1,1.2-1.8,1.9l-0.1,0.1v0c-0.5,0.5-1,1-1.5,1.5l-0.2,0.2c-0.6,0.5-1.2,1.1-1.7,1.5l-0.2,0.2
			c-0.6,0.5-1.3,1.1-2,1.6c-0.7,0.5-1.4,1-2.1,1.5c-0.8,0.5-1.5,1-2.2,1.4l-0.6,0.4c-0.5,0.3-1,0.6-1.7,1l-2.3,1.2
			c-0.7,0.3-1.4,0.7-2.4,1.1l-3.5,1.4l-3.9,1.1c-1.6,0.4-2.5,2.1-2.1,3.6c0.4,1.3,1.6,2.2,2.9,2.2c0.3,0,0.5,0,0.8-0.1l2.9-0.8
			l4.2-1.5l1.3-0.5c0.6-0.2,1.2-0.5,1.8-0.8l0.7-0.3l0.2-0.1c0.8-0.4,1.6-0.8,2.3-1.2l0.2-0.1c0.8-0.5,1.7-0.9,2.5-1.4
			c0.9-0.5,1.7-1,2.5-1.6c0.8-0.5,1.6-1.1,2.3-1.7c0.8-0.5,1.5-1.2,2.3-1.8c0.8-0.7,1.5-1.3,2.2-1.9c0.5-0.5,1-0.9,1.4-1.4l0.6-0.6
			c0.5-0.5,1.1-1.1,1.7-1.8l0.6-0.7c0.5-0.6,1-1.2,1.5-1.7c0.5-0.7,1.1-1.4,1.6-2.1l0.8-1c0.4-0.5,0.7-1,1.1-1.5l0.1-0.2v0
			c0.5-0.7,1-1.5,1.4-2.2c0.5-0.8,1-1.7,1.5-2.5c0.5-0.9,0.9-1.8,1.3-2.6c0.5-1,0.9-1.8,1.2-2.7c0.3-0.7,0.3-1.5,0-2.2
			C129.9,91.9,129.4,91.4,128.6,91.1z"/>
		<path class="st0" d="M20.8,54.8c-4.6,0-8.8,1.8-12.1,5c-3.3,3.2-5,7.6-5,12.2c0,4.6,1.8,8.9,5,12.2c3.2,3.3,7.5,5,12.2,5
			c1.6,0,3-1.3,3-3V57.7C23.8,56.1,22.5,54.8,20.8,54.8z M17.9,61.1v21.8c-1.9-0.5-3.6-1.5-5-2.9c-2.1-2.1-3.3-5-3.3-8
			c0-3,1.2-5.9,3.3-8C14.3,62.6,16,61.6,17.9,61.1z"/>
		<path class="st0" d="M141.3,59.8c-3.3-3.2-7.5-5-12.1-5h-0.1c-1.6,0-3,1.3-3,3v28.5c0,1.6,1.3,3,3,3c4.6,0,8.9-1.8,12.2-5
			c3.2-3.2,5-7.6,5-12.2S144.5,63,141.3,59.8z M132.1,82.8V61.1c1.9,0.5,3.6,1.5,5,2.9c2.1,2.1,3.3,5,3.3,8c0,3-1.2,5.8-3.3,8
			C135.7,81.3,134,82.3,132.1,82.8z"/>
		<path class="st0" d="M44.8,26.8c4.5-3,9.3-5.3,14.4-6.9c5.1-1.5,10.4-2.3,15.8-2.3c5.4,0,10.7,0.8,15.8,2.3
			c5.1,1.6,10,3.9,14.4,6.9c4.3,2.9,8.2,6.4,11.5,10.5c3.3,4,6,8.5,8.1,13.3c0.5,1.1,1.6,1.8,2.7,1.8c0.4,0,0.8-0.1,1.1-0.2
			c0.7-0.3,1.3-0.9,1.6-1.6c0.3-0.7,0.3-1.5,0-2.3v0c-2.3-5.3-5.3-10.3-9-14.7c-3.7-4.5-8-8.4-12.8-11.6c-4.9-3.3-10.3-5.9-16-7.6
			c-5.7-1.7-11.6-2.6-17.5-2.6c-6,0-11.9,0.9-17.5,2.6c-5.7,1.7-11,4.3-16,7.6c-4.8,3.2-9.1,7.1-12.8,11.6C25,38,22,43,19.8,48.3
			c-0.3,0.7-0.3,1.5,0,2.3c0.3,0.7,0.9,1.3,1.6,1.6c0.4,0.2,0.8,0.2,1.1,0.2c0.4,0,0.8-0.1,1.1-0.2c0.7-0.3,1.3-0.9,1.6-1.6
			c2-4.8,4.7-9.2,8.1-13.3C36.6,33.2,40.5,29.7,44.8,26.8z"/>
		<path class="st0" d="M75,121c-2.3,0-4.5,0.9-6.1,2.5c-1.6,1.7-2.5,3.8-2.5,6.1c0,2.3,0.9,4.5,2.5,6.1l0.2,0.2h0
			c1.6,1.5,3.7,2.3,5.9,2.3c2.3,0,4.5-0.9,6.1-2.6c1.6-1.6,2.5-3.8,2.5-6.1c0-2.3-0.9-4.5-2.6-6.1C79.5,121.9,77.3,121,75,121z
			 M77.7,129.7c0,0.7-0.3,1.4-0.8,1.9c-0.4,0.4-1,0.8-1.9,0.8c-0.8,0-1.4-0.3-2-0.8c-0.5-0.5-0.8-1.2-0.8-1.9c0-0.7,0.3-1.4,0.8-1.9
			c0.5-0.5,1.2-0.8,1.9-0.8c0.7,0,1.4,0.3,1.9,0.8C77.5,128.3,77.7,128.9,77.7,129.7z"/>
	</g>
</g>
</svg>
