<?xml version="1.0" encoding="utf-8"?>
<!-- Generator: Adobe Illustrator 23.0.1, SVG Export Plug-In . SVG Version: 6.00 Build 0)  -->
<svg version="1.1" id="Capa_1" xmlns="http://www.w3.org/2000/svg" xmlns:xlink="http://www.w3.org/1999/xlink" x="0px" y="0px"
	 viewBox="0 0 400 400" style="enable-background:new 0 0 400 400;" xml:space="preserve">
<style type="text/css">
	.st0{fill:#FF8000;}
</style>
<g>
	<g>
		<path class="st0" d="M195.62,265.34c-4.03-0.01-7.31,3.25-7.32,7.29c-0.01,4.03,3.25,7.31,7.29,7.32s7.31-3.25,7.32-7.29
			C202.92,268.64,199.66,265.35,195.62,265.34z"/>
		<path class="st0" d="M268.09,167.89c0.03-12.1-9.75-21.94-21.86-21.97l-92.2-0.24c-12.1-0.03-21.94,9.75-21.97,21.86l-0.39,150.49
			c-0.03,12.1,9.75,21.94,21.86,21.97l92.2,0.24c12.1,0.03,21.94-9.75,21.97-21.86L268.09,167.89z M181.24,178.14l29.22,0.08
			c4.03,0.01,7.3,2.46,7.29,6.5c-0.01,4.03-3.29,6.47-7.32,6.46l-29.22-0.08c-4.03-0.01-7.3-2.46-7.29-6.5
			C173.93,180.56,177.21,178.13,181.24,178.14z M181.16,210.52l29.22,0.08c4.03,0.01,7.3,2.46,7.29,6.5
			c-0.01,4.03-3.29,6.47-7.32,6.46l-29.22-0.08c-4.03-0.01-7.3-2.46-7.29-6.5C173.85,212.95,177.12,210.51,181.16,210.52z
			 M195.53,301.87c-16.14-0.04-29.18-13.16-29.14-29.29c0.04-16.14,13.16-29.18,29.29-29.14c16.13,0.04,29.18,13.16,29.14,29.29
			C224.78,288.86,211.66,301.91,195.53,301.87z"/>
	</g>
	<g>
		<path class="st0" d="M313.32,309.47c4.03,0.01,7.31-3.25,7.32-7.29s-3.25-7.31-7.29-7.32s-7.31,3.25-7.32,7.29
			S309.29,309.46,313.32,309.47z"/>
		<path class="st0" d="M328.02,272.99c12.08,0.03,21.94-9.77,21.97-21.86c0.03-12.08-9.77-21.94-21.86-21.97
			c-12.08-0.03-21.94,9.77-21.97,21.86S315.94,272.96,328.02,272.99z M328.1,243.77c4.03,0.01,7.3,3.3,7.29,7.32s-3.3,7.3-7.32,7.29
			c-4.03-0.01-7.3-3.3-7.29-7.32C320.78,247.03,324.07,243.76,328.1,243.77z"/>
		<g>
			<path class="st0" d="M384.9,83.98c0.03-12.1-9.75-21.94-21.86-21.97l-59.81-0.15c-12.1-0.03-21.94,9.75-21.97,21.86l-0.59,228.22
				c-0.03,12.1,9.75,21.94,21.86,21.97l59.81,0.15c12.1,0.03,21.94-9.75,21.97-21.86L384.9,83.98z M371.4,295.22l-27.58-0.07
				c-4.03-0.01-7.31,2.42-7.32,6.46c-0.01,4.03,3.25,6.49,7.29,6.5l27.58,0.07l-0.02,8.76c-0.01,4.03-6.76,4.18-10.79,4.17
				l-62.82-0.16c-4.03-0.01-4.13-0.18-4.12-4.21l0.27-105.91l77.73,0.2L371.4,295.22z M307.68,148.76
				c0.03-12.08,9.89-21.89,21.97-21.86c12.08,0.03,21.89,9.89,21.86,21.97c-0.03,12.08-9.89,21.89-21.97,21.86
				C317.45,170.7,307.65,160.85,307.68,148.76z M371.92,94.42l-77.73-0.2l0.03-11.23c0.01-4.03,0.13-8.2,4.15-8.19l62.82,0.16
				c4.03,0.01,10.77,4.2,10.76,8.23L371.92,94.42z"/>
			<path class="st0" d="M336.9,148.84c0.01-4.03-3.26-7.31-7.29-7.32c-4.03-0.01-7.31,3.26-7.32,7.29
				c-0.01,4.03,3.26,7.31,7.29,7.32C333.6,156.13,336.89,152.87,336.9,148.84z"/>
		</g>
	</g>
	<g>
		<path class="st0" d="M78.91,308.87c-4.03-0.01-7.3-3.29-7.29-7.32c0.01-4.03,3.29-7.3,7.32-7.29s7.3,3.29,7.29,7.32
			C86.22,305.62,82.94,308.88,78.91,308.87z"/>
		<path class="st0" d="M86.36,250.45c0.03-12.08-9.77-21.94-21.86-21.97c-12.08-0.03-21.94,9.77-21.97,21.86
			c-0.03,12.08,9.77,21.94,21.86,21.97C76.47,272.34,86.33,262.54,86.36,250.45z M71.75,250.42c-0.01,4.03-3.3,7.3-7.32,7.29
			s-7.3-3.3-7.29-7.32s3.3-7.3,7.32-7.29C68.5,243.1,71.76,246.39,71.75,250.42z"/>
		<g>
			<path class="st0" d="M119.33,83.3c0.03-12.1-9.75-21.94-21.86-21.97l-59.81-0.15c-12.1-0.03-21.94,9.75-21.97,21.86l-0.59,228.22
				c-0.03,12.1,9.75,21.94,21.86,21.97l59.81,0.15c12.1,0.03,21.94-9.75,21.97-21.86L119.33,83.3z M28.32,210.13l84.2,0.22
				l-0.27,105.91c-0.01,4.03-11.3,4.17-15.33,4.16l-62.82-0.16c-4.03-0.01-6.07-0.19-6.06-4.21l0.02-8.76l22.87,0.06
				c4.03,0.01,7.31-2.42,7.32-6.46c0.01-4.03-3.25-6.49-7.29-6.5l-22.87-0.06L28.32,210.13z M65.91,170.05
				c-12.08-0.03-21.89-9.89-21.86-21.97s9.89-21.89,21.97-21.86c12.08,0.03,21.89,9.89,21.86,21.97
				C87.85,160.28,77.99,170.08,65.91,170.05z M28.65,82.3c0.01-4.03,2.06-8.19,6.09-8.18l62.82,0.16c4.03,0.01,15.31,4.21,15.3,8.24
				l-0.03,11.23l-84.2-0.22L28.65,82.3z"/>
			<path class="st0" d="M58.66,148.12c0.01-4.03,3.3-7.3,7.32-7.29c4.03,0.01,7.3,3.3,7.29,7.32c-0.01,4.03-3.3,7.3-7.32,7.29
				C61.92,155.43,58.65,152.15,58.66,148.12z"/>
		</g>
	</g>
	<path class="st0" d="M225.03,104.83c2.35-2.34,2.36-6.15,0.02-8.51c-7.94-7.97-18.5-12.38-29.74-12.41
		c-11.24-0.03-21.83,4.32-29.81,12.25c-2.36,2.34-2.37,6.15-0.03,8.51c2.34,2.36,6.15,2.37,8.51,0.03c5.7-5.67,13.26-8.78,21.3-8.75
		c8.03,0.02,15.58,3.17,21.25,8.86C218.87,107.17,222.67,107.18,225.03,104.83z"/>
	<path class="st0" d="M242.07,87.88c2.35-2.34,2.36-6.15,0.02-8.51c-12.48-12.54-29.08-19.47-46.72-19.52
		c-17.64-0.05-34.27,6.8-46.82,19.28c-2.36,2.34-2.37,6.15-0.02,8.51c2.34,2.36,6.15,2.37,8.51,0.02
		c10.27-10.21,23.87-15.82,38.31-15.78c14.43,0.04,28.01,5.71,38.23,15.98C235.9,90.22,239.71,90.23,242.07,87.88z"/>
	<path class="st0" d="M182.47,113.25c-2.35,2.35-2.36,6.16-0.01,8.51c2.35,2.35,6.15,2.36,8.51,0.01c1.14-1.13,2.64-1.76,4.24-1.75
		s3.1,0.63,4.24,1.77c2.34,2.36,6.15,2.38,8.51,0.03c2.36-2.34,2.37-6.15,0.03-8.51c-3.4-3.43-7.93-5.32-12.75-5.33
		C190.42,107.97,185.88,109.84,182.47,113.25z"/>
</g>
</svg>
