<?xml version="1.0" encoding="utf-8"?>
<!-- Generator: Adobe Illustrator 23.0.1, SVG Export Plug-In . SVG Version: 6.00 Build 0)  -->
<svg version="1.1" id="Capa_1" xmlns="http://www.w3.org/2000/svg" xmlns:xlink="http://www.w3.org/1999/xlink" x="0px" y="0px"
	 viewBox="0 0 400 400" style="enable-background:new 0 0 400 400;" xml:space="preserve">
<style type="text/css">
	.st0{fill:#FF8000;}
</style>
<g>
	<g>
		<path class="st0" d="M357.11,50.36c-2-2.01-6-2.02-8.67-0.02c-2.01,2-2.02,6-0.02,8c21.95,22.06,21.86,58.07-0.21,80.02
			c-2.01,2-2.02,6-0.02,8c1.33,1.34,2.66,2.01,4,2.01c1.33,0,3.34-0.66,4.01-1.99C383.6,120.45,383.71,77.11,357.11,50.36
			L357.11,50.36z"/>
		<path class="st0" d="M332.4,63.64c-2.66-2.01-6-2.02-8.67-0.02c-2.01,2-2.02,6-0.02,8c7.32,7.35,11.29,16.7,11.27,27.37
			c-0.03,10-4.05,20-11.41,27.31c-2.01,2-2.02,6-0.02,8.67c1.33,1.34,2.66,2.01,4,2.01c1.33,0,3.34-0.66,4.01-1.99
			c9.36-9.31,14.73-21.97,14.76-35.31C347.01,86.35,341.71,73.66,332.4,63.64L332.4,63.64z"/>
		<path class="st0" d="M51.67,58.24c2.01-2,2.02-6,0.02-8c-2-2.01-6-2.02-8-0.02c-26.74,26.61-26.85,69.95-0.25,96.69
			c1.33,1.34,2.66,2.01,4,2.01c1.33,0,3.34-0.66,4.01-1.99c2.01-2,2.02-6,0.02-8C29.51,116.2,29.6,80.19,51.67,58.24L51.67,58.24z"
			/>
	</g>
	<path class="st0" d="M77,61.64c-2-2.01-6-2.02-8.67-0.02c-9.36,9.31-14.73,21.97-14.76,35.31s5.27,26.02,14.58,35.38
		c1.33,1.34,2.66,2.01,4,2.01c1.33,0,3.34-0.66,4.01-1.99c2.01-2,2.02-6,0.02-8c-7.32-7.35-11.29-16.7-11.27-27.37
		c0.03-10,4.05-20,11.41-27.31C78.98,67.65,78.99,63.65,77,61.64L77,61.64z"/>
	<path class="st0" d="M211.65,342.07c-0.02,6.67-5.37,11.99-12.03,11.97s-11.99-5.37-11.97-12.03s5.37-11.99,12.03-11.97
		C206.34,330.72,211.66,335.4,211.65,342.07L211.65,342.07z"/>
	<path class="st0" d="M274.49,23.47l-148.04-0.38c-14-0.04-26.04,11.27-26.07,25.94l-0.78,301.42c-0.04,14,11.27,26.04,25.94,26.07
		l148.71,0.38c14,0.04,26.04-11.27,26.07-25.94l0.78-301.42C300.46,34.88,289.16,23.51,274.49,23.47L274.49,23.47z M217.76,40.67
		l6,0.02c3.33,0.01,5.99,2.68,5.99,6.02s-2.68,5.99-6.02,5.99l-6-0.02c-3.33-0.01-5.99-2.68-5.99-6.02
		C212.42,43.32,215.09,40.66,217.76,40.67L217.76,40.67z M177.08,40.56l23.34,0.06c3.33,0.01,5.99,2.68,5.99,6.02
		c-0.01,3.33-2.68,5.99-6.02,5.99l-23.34-0.06c-3.33-0.01-5.99-2.68-5.99-6.02S173.75,40.55,177.08,40.56L177.08,40.56z
		 M199.58,366.05c-12.67-0.03-23.31-10.73-23.28-23.4s10.73-23.31,23.4-23.28c12.67,0.03,23.31,10.73,23.28,23.4
		C222.95,355.44,212.25,366.08,199.58,366.05L199.58,366.05z M287.76,307.59l-176.05-0.45l0.63-243.4l176.72,0.46l-0.63,243.4
		L287.76,307.59z"/>
</g>
</svg>
