<?xml version="1.0" encoding="utf-8"?>
<!-- Generator: Adobe Illustrator 23.0.1, SVG Export Plug-In . SVG Version: 6.00 Build 0)  -->
<svg version="1.1" id="Capa_1" xmlns="http://www.w3.org/2000/svg" xmlns:xlink="http://www.w3.org/1999/xlink" x="0px" y="0px"
	 viewBox="0 0 400 400" style="enable-background:new 0 0 400 400;" xml:space="preserve">
<style type="text/css">
	.st0{fill:#FF8000;}
</style>
<g>
	<g>
		<path class="st0" d="M108.05,73.2l-69.38-0.18C25.8,72.99,15.75,83.69,15.72,95.85l-0.66,254.62
			c-0.03,12.87,10.67,22.91,22.83,22.95l69.38,0.18c12.87,0.03,22.91-10.67,22.95-22.83l0.66-254.62
			C130.91,82.56,120.2,73.23,108.05,73.2z M49.52,304.07c-6.44-0.02-12.15-5.04-12.13-12.19c0.02-7.15,5.04-11.43,12.19-11.41
			c7.15,0.02,11.43,5.04,11.41,11.47C60.97,299.09,55.95,304.09,49.52,304.07z M107.81,165.46l-69.38-0.18l0.06-22.89l69.38,0.18
			L107.81,165.46L107.81,165.46z M107.93,118.98l-69.38-0.18l0.06-22.89l69.38,0.18L107.93,118.98L107.93,118.98z"/>
		<path class="st0" d="M257.59,326.78l0.06-22.89l-69.38-0.18l-0.06,22.89c-12.87-0.03-22.91,10.67-22.95,22.83l115.87,0.3
			C280.45,337.57,270.46,326.81,257.59,326.78z"/>
		<path class="st0" d="M362.07,26.65L84.57,25.94C71.69,25.9,61.65,36.6,61.62,48.76l22.89,0.06L153.88,49l208.13,0.54l-0.48,185.24
			l-208.13-0.54l-0.12,46.49l208.13,0.54c12.87,0.03,22.91-10.67,22.95-22.83L384.9,49.6C385.65,37.44,374.95,26.69,362.07,26.65z
			 M222.69,269.47c-6.44-0.02-12.15-5.04-12.13-12.19c0.02-7.15,5.04-11.43,12.19-11.41c7.15,0.02,12.15,5.04,12.13,11.47
			C234.86,264.49,229.84,269.49,222.69,269.47z"/>
	</g>
</g>
</svg>
