<?xml version="1.0" encoding="utf-8"?>
<!-- Generator: Adobe Illustrator 23.0.1, SVG Export Plug-In . SVG Version: 6.00 Build 0)  -->
<svg version="1.1" id="Capa_1" xmlns="http://www.w3.org/2000/svg" xmlns:xlink="http://www.w3.org/1999/xlink" x="0px" y="0px"
	 viewBox="0 0 400 400" style="enable-background:new 0 0 400 400;" xml:space="preserve">
<style type="text/css">
	.st0{fill:#FF8000;}
</style>
<path class="st0" d="M305.86,189.67c-5.99-0.02-11.74,0.88-17.33,2.21L274.2,155.8l0.02-8.54l42.32,0.11
	c11.69,0.03,21.18-9.42,21.22-21.11l0.03-10.58c0.02-5.84-4.71-10.59-10.55-10.61l-52.9-0.14l0.03-10.58
	c0.05-17.5-14.16-31.78-31.66-31.82l-21.16-0.05c-5.85-0.02-10.59,4.71-10.61,10.55c-0.02,5.85,4.71,10.59,10.55,10.61l21.16,0.05
	c5.84,0.02,10.57,4.77,10.55,10.61l-0.14,52.9l-105.8-0.27l0.05-21.16l10.58,0.03c5.85,0.02,10.59-4.71,10.61-10.55
	c0.02-5.85-4.71-10.59-10.55-10.61l-42.32-0.11c-5.85-0.02-10.59,4.71-10.61,10.55c-0.02,5.85,4.71,10.59,10.55,10.61l10.58,0.03
	l-0.08,29.43l-16.72,35.58c-4.88-1.03-9.93-1.6-15.11-1.61c-40.83-0.11-74.85,33.04-74.96,73.87
	c-0.11,40.83,33.74,74.15,74.58,74.25c33.43,0.09,61.49-22.26,70.75-52.72l24.61,0.06c11.69,0.03,21.19-9.42,21.22-21.11
	c0.02-6.77-3.35-12.53-8.29-16.42l58.15-68.92l8.6,21.67c-22.12,12.78-37.24,36.39-37.31,63.72c-0.11,40.83,33.04,74.15,73.87,74.25
	c40.83,0.11,74.85-33.04,74.96-73.87S346.69,189.77,305.86,189.67L305.86,189.67z M93.92,316.08
	c-29.17-0.08-53.55-23.87-53.47-53.04s24.58-52.84,53.74-52.76c1.95,0.01,3.8,0.38,5.7,0.59L85.28,242l-1.74,0
	c-11.69-0.03-21.19,9.42-21.22,21.11c-0.03,11.68,9.42,21.18,21.11,21.21l59,0.15C134.19,303.09,115.56,316.14,93.92,316.08
	L93.92,316.08z M108.66,242.06l11.64-24.52c9.79,5.65,17.67,14.18,22.22,24.61L108.66,242.06z M178.54,242.24l-13.82-0.04
	c-5.62-18.85-18.42-34.43-35.37-43.72l14.43-30.4l97.11,0.25L178.54,242.24z M305.53,316.63c-29.17-0.08-52.84-23.87-52.76-53.04
	c0.05-18.44,9.6-34.63,23.97-44.07l8.11,20.44c-6.62,5.8-10.9,14.21-10.92,23.69c-0.05,17.5,14.16,31.78,31.66,31.82
	c17.5,0.05,31.78-14.16,31.82-31.66c0.05-17.5-14.16-31.78-31.66-31.82c-0.43,0-0.83,0.11-1.25,0.12l-8.08-20.36
	c3.06-0.54,6.17-0.93,9.39-0.92c29.17,0.08,53.55,23.87,53.47,53.04S334.7,316.71,305.53,316.63L305.53,316.63z M305.53,316.63"/>
</svg>
