<svg xmlns="http://www.w3.org/2000/svg" viewBox="0 0 44.01 30"><defs><style>.cls-1{fill:#fff;}</style></defs><title>despacho</title><g id="Capa_2" data-name="Capa 2"><g id="Capa_1-2" data-name="Capa 1"><path class="cls-1" d="M36,21.94a4.06,4.06,0,0,0-2.87,1.18,4,4,0,0,0,0,5.7A4.08,4.08,0,0,0,36,30a4,4,0,0,0,0-8.06Zm0,6.27a2.24,2.24,0,1,1,0-4.48,2.24,2.24,0,0,1,0,4.48ZM37,8.5a.87.87,0,0,0-.6-.23h-4.6a.9.9,0,0,0-.9.9v7.35a.9.9,0,0,0,.9.9h7.29a.9.9,0,0,0,.9-.9V11.59a.9.9,0,0,0-.3-.66Zm1.2,7.11h-5.5V10.05h3.35L38.22,12ZM14.09,21.94a4.06,4.06,0,0,0-2.87,1.18,4,4,0,0,0,0,5.7A4.08,4.08,0,0,0,14.09,30a4,4,0,0,0,0-8.06Zm0,6.27a2.24,2.24,0,1,1,0-4.48,2.24,2.24,0,0,1,0,4.48ZM8.12,23H6.32V20.65a.9.9,0,0,0-1.79,0v3.28a.9.9,0,0,0,.9.9h2.7a.9.9,0,1,0,0-1.79Zm4.54-4.88a.9.9,0,0,0-.9-.9H.9a.9.9,0,1,0,0,1.79H11.77A.89.89,0,0,0,12.66,18.15ZM2.72,14.92,13.58,15a.9.9,0,0,0,.91-.89.89.89,0,0,0-.89-.91L2.73,13.13h0a.9.9,0,0,0,0,1.79Zm1.83-4.07H15.41a.9.9,0,0,0,0-1.79H4.54a.9.9,0,1,0,0,1.79ZM43.67,9.64h0L37.26,4.33a.88.88,0,0,0-.57-.21H29.14V.9a.9.9,0,0,0-.9-.9H5.42a.9.9,0,0,0-.9.9V7.46a.9.9,0,1,0,1.79,0V1.79h21V23H20a.9.9,0,0,0,0,1.79H30.95a.9.9,0,0,0,0-1.79h-1.8V5.91h7.22l5.84,4.84L42.15,23h-.93a.9.9,0,0,0,0,1.79H43a.89.89,0,0,0,.9-.89L44,10.34A1,1,0,0,0,43.67,9.64Z"/></g></g></svg>