<svg xmlns="http://www.w3.org/2000/svg" viewBox="0 0 23.43 16.17"><defs><style>.cls-1{fill:#fff;}</style></defs><title>diners-logo-b</title><g id="Capa_2" data-name="Capa 2"><g id="Capa_1-2" data-name="Capa 1"><g id="_Grupo_" data-name="&lt;Grupo&gt;"><g id="_Grupo_2" data-name="&lt;Grupo&gt;"><path id="_Trazado_" data-name="&lt;Trazado&gt;" class="cls-1" d="M7.77,4.68A2.72,2.72,0,0,0,9.51,7.22V2.14A2.72,2.72,0,0,0,7.77,4.68Z"/><path id="_Trazado_2" data-name="&lt;Trazado&gt;" class="cls-1" d="M11.46,2.14V7.22a2.72,2.72,0,0,0,0-5.08Z"/><path id="_Trazado_compuesto_" data-name="&lt;Trazado compuesto&gt;" class="cls-1" d="M12.68,0h-2.2A4.62,4.62,0,0,0,5.75,4.73a4.7,4.7,0,0,0,4.73,4.65h2.2a4.87,4.87,0,0,0,4.9-4.65A4.79,4.79,0,0,0,12.68,0ZM10.49,9a4.29,4.29,0,1,1,4.29-4.29A4.29,4.29,0,0,1,10.49,9Z"/></g><path id="_Trazado_compuesto_2" data-name="&lt;Trazado compuesto&gt;" class="cls-1" d="M1,12.57c0,.38.27.43.52.43A1.38,1.38,0,0,0,2.9,11.45a1.49,1.49,0,0,0-1.55-1.6c-.2,0-.3,0-.39,0ZM.47,10.25c0-.45-.23-.42-.46-.42V9.7H1.46a1.81,1.81,0,0,1,2,1.73c0,.49-.29,1.72-2,1.72H0V13c.3,0,.44,0,.46-.38Z"/><path id="_Trazado_compuesto_3" data-name="&lt;Trazado compuesto&gt;" class="cls-1" d="M4.14,10.13a.24.24,0,0,1,0-.49.24.24,0,0,1,.24.24.25.25,0,0,1-.24.25M3.61,13h.09c.14,0,.24,0,.24-.16V11.52c0-.22-.07-.25-.26-.35v-.08l.53-.18.09,0s0,0,0,.07v1.9c0,.16.11.16.25.16h.08v.13H3.61Z"/><path id="_Trazado_3" data-name="&lt;Trazado&gt;" class="cls-1" d="M5.15,11.55c0-.18-.05-.23-.29-.33v-.09a6.68,6.68,0,0,0,.65-.24s0,0,0,0v.32a1.45,1.45,0,0,1,.86-.37c.42,0,.57.31.57.69v1.28c0,.16.11.16.25.16h.09v.13H6.25V13h.09c.14,0,.24,0,.24-.16V11.58c0-.28-.17-.42-.46-.42a1.32,1.32,0,0,0-.58.24v1.47c0,.16.11.16.25.16h.09v.13H4.82V13h.09c.14,0,.24,0,.24-.16Z"/><path id="_Trazado_compuesto_4" data-name="&lt;Trazado compuesto&gt;" class="cls-1" d="M8.56,11.63c.12,0,.14-.06.14-.12A.42.42,0,0,0,8.27,11c-.3,0-.51.22-.57.58Zm-.88.16a1.2,1.2,0,0,0,0,.29.83.83,0,0,0,.73.86,1,1,0,0,0,.67-.33l.07.07a1.16,1.16,0,0,1-.92.56,1,1,0,0,1-.95-1.08c0-1,.65-1.26,1-1.26a.79.79,0,0,1,.84.78.6.6,0,0,1,0,.09l0,0Z"/><path id="_Trazado_4" data-name="&lt;Trazado&gt;" class="cls-1" d="M9.24,13h.13c.14,0,.24,0,.24-.16V11.47c0-.15-.18-.18-.26-.22v-.07c.36-.15.56-.28.61-.28s0,0,0,.06v.45h0c.12-.19.33-.51.63-.51a.27.27,0,0,1,.28.26.24.24,0,0,1-.23.25c-.15,0-.15-.12-.33-.12a.42.42,0,0,0-.36.41v1.16c0,.16.1.16.24.16h.28v.13H9.24Z"/><path id="_Trazado_5" data-name="&lt;Trazado&gt;" class="cls-1" d="M11.15,12.47a.65.65,0,0,0,.62.6.35.35,0,0,0,.4-.35c0-.58-1.08-.4-1.08-1.19a.68.68,0,0,1,.77-.63,1.3,1.3,0,0,1,.56.14l0,.51h-.11a.51.51,0,0,0-.54-.49.35.35,0,0,0-.39.33c0,.58,1.15.4,1.15,1.18,0,.33-.26.67-.85.67a1.3,1.3,0,0,1-.6-.17l-.05-.57Z"/><path id="_Trazado_6" data-name="&lt;Trazado&gt;" class="cls-1" d="M17,10.59h-.12a.94.94,0,0,0-1.06-.81,1.41,1.41,0,0,0-1.4,1.57,1.61,1.61,0,0,0,1.48,1.72,1,1,0,0,0,1-.86l.11,0-.11.72a2.78,2.78,0,0,1-1.1.26,1.76,1.76,0,0,1-1.89-1.86,1.82,1.82,0,0,1,1.88-1.74A3.57,3.57,0,0,1,17,9.89Z"/><path id="_Trazado_7" data-name="&lt;Trazado&gt;" class="cls-1" d="M17.22,13h.09c.14,0,.24,0,.24-.16V10.1c0-.32-.07-.33-.26-.39V9.64a3.13,3.13,0,0,0,.51-.21l.11-.05s0,0,0,.07v3.42c0,.16.11.16.25.16h.08v.13H17.22Z"/><path id="_Trazado_8" data-name="&lt;Trazado&gt;" class="cls-1" d="M20.4,12.88c0,.09.05.09.14.09h.2v.1a5,5,0,0,0-.71.15h0v-.4a1.34,1.34,0,0,1-.88.42.53.53,0,0,1-.54-.59V11.37c0-.13,0-.25-.3-.28V11l.64,0c.05,0,.05,0,.05.14v1.28c0,.15,0,.57.43.57a1.11,1.11,0,0,0,.6-.3V11.33c0-.1-.24-.15-.42-.2V11c.45,0,.72-.07.77-.07s0,0,0,.09Z"/><path id="_Trazado_compuesto_5" data-name="&lt;Trazado compuesto&gt;" class="cls-1" d="M21.39,12.6a.53.53,0,0,0,.51.51c.53,0,.75-.52.75-1a.94.94,0,0,0-.79-1,.76.76,0,0,0-.47.23Zm0-1.35a1.25,1.25,0,0,1,.74-.36,1,1,0,0,1,.92,1,1.25,1.25,0,0,1-1.18,1.3,1.46,1.46,0,0,1-.69-.17l-.15.11-.1-.05a5.86,5.86,0,0,0,.07-.88V10.1c0-.32-.07-.33-.26-.39V9.64a3.14,3.14,0,0,0,.51-.21l.11-.05s0,0,0,.07Z"/><path id="_Trazado_9" data-name="&lt;Trazado&gt;" class="cls-1" d="M0,16H0c.1,0,.2,0,.2-.15V14.47c0-.14-.1-.15-.2-.15H0v-.08H.83v.08h0c-.1,0-.2,0-.2.15v1.41c0,.14.1.15.2.15h0v.08H0Z"/><path id="_Trazado_compuesto_6" data-name="&lt;Trazado compuesto&gt;" class="cls-1" d="M.82,16.11V16h0c-.1,0-.21,0-.21-.17V14.47c0-.15.12-.17.21-.17h0v-.06H0v.06H0c.1,0,.21,0,.21.17v1.41C.26,16,.15,16,0,16H0v.06h.8m0,0H0V16H0c.1,0,.19,0,.19-.14V14.47c0-.13-.09-.14-.19-.14H0v-.09H.85v.09h0c-.1,0-.19,0-.19.14v1.41c0,.13.09.14.19.14h0v.09Z"/><path id="_Trazado_10" data-name="&lt;Trazado&gt;" class="cls-1" d="M2.69,15.59h0v-1a.22.22,0,0,0-.23-.25H2.4v-.08h.71v.08h0c-.11,0-.24,0-.24.34v1.23a1.8,1.8,0,0,0,0,.27h-.1L1.35,14.61v1.11c0,.23,0,.32.25.32h0v.08H.94V16H1c.19,0,.24-.13.24-.34V14.56A.24.24,0,0,0,1,14.32h0v-.08h.55Z"/><path id="_Trazado_compuesto_7" data-name="&lt;Trazado compuesto&gt;" class="cls-1" d="M2.68,15.58h0Zm0,0h0Zm.05.56h.09a1.79,1.79,0,0,1,0-.26V14.66c0-.32.14-.35.25-.35h0v-.06H2.41v.06h0a.24.24,0,0,1,.25.27v1h0l-1.2-1.36H.95v.06H1a.25.25,0,0,1,.26.25v1.14c0,.22-.06.35-.25.35h0v.06h.69V16h0c-.21,0-.26-.09-.27-.33V14.58Zm.1,0H2.73L1.36,14.64v1.08c0,.23,0,.3.24.3h.06v.09H.92V16H1c.18,0,.23-.12.23-.33V14.56A.23.23,0,0,0,1,14.33h0v-.09H1.5l1.18,1.33v-1c0-.21-.14-.24-.22-.24H2.39v-.09h.73v.09H3.07c-.11,0-.23,0-.23.33v1.23a1.78,1.78,0,0,0,0,.27h0Z"/><path id="_Trazado_11" data-name="&lt;Trazado&gt;" class="cls-1" d="M3.51,14.37c-.2,0-.21,0-.25.25H3.18c0-.08,0-.15,0-.23a1.62,1.62,0,0,0,0-.23h.06c0,.08.09.08.16.08H4.85c.07,0,.14,0,.15-.08h.06c0,.07,0,.15,0,.22s0,.15,0,.22l-.08,0c0-.1,0-.26-.2-.26H4.3V15.8c0,.21.09.23.22.23h.05v.08h-.9V16h.05c.15,0,.22,0,.22-.23V14.37Z"/><path id="_Trazado_12" data-name="&lt;Trazado&gt;" class="cls-1" d="M4.57,16.13H3.67V16h.06c.15,0,.21,0,.21-.21V14.38H4v1.45c0,.22-.09.24-.24.24h0v.06h.87V16h0c-.13,0-.24,0-.24-.24V14.36h.45c.18,0,.2.15.21.25l.06,0c0-.07,0-.14,0-.21s0-.14,0-.21H5c0,.08-.09.08-.16.08H3.44c-.06,0-.13,0-.16-.08h0a1.57,1.57,0,0,1,0,.22c0,.07,0,.15,0,.22h.06c0-.19.06-.25.26-.25h0c-.2,0-.2,0-.24.24h-.1c0-.08,0-.15,0-.23a1.54,1.54,0,0,0,0-.23H3.3c0,.07.07.07.14.07h1.4c.08,0,.13,0,.13-.07h.09c0,.07,0,.15,0,.22s0,.14,0,.22H5l-.1,0v0c0-.1,0-.25-.19-.25H4.31V15.8c0,.2.08.22.21.22h.06v.09Z"/><path id="_Trazado_13" data-name="&lt;Trazado&gt;" class="cls-1" d="M5.14,16h0c.1,0,.2,0,.2-.15V14.47c0-.14-.1-.15-.2-.15h0v-.08H6.5c0,.12,0,.29,0,.41l-.08,0c0-.18,0-.32-.33-.32H5.72v.71H6c.16,0,.2-.09.21-.24h.08c0,.11,0,.21,0,.32s0,.2,0,.31l-.08,0c0-.16,0-.27-.21-.27H5.72v.63c0,.18.16.18.33.18.32,0,.47,0,.55-.33l.08,0c0,.14-.07.29-.09.43H5.14Z"/><path id="_Trazado_compuesto_8" data-name="&lt;Trazado compuesto&gt;" class="cls-1" d="M6.57,16.11c0-.14.05-.27.09-.41H6.61c-.08.3-.24.33-.56.33s-.34,0-.34-.19v-.64H6c.19,0,.21.11.22.26h.06c0-.1,0-.2,0-.3s0-.2,0-.3H6.27c0,.14-.06.24-.22.24H5.71v-.73H6.1c.28,0,.33.14.34.31l.06,0c0-.08,0-.17,0-.26s0-.09,0-.13H5.15v.06h0c.1,0,.21,0,.21.17v1.41c0,.15-.12.17-.21.17h0v.06H6.57m0,0H5.13V16h0c.1,0,.19,0,.19-.14V14.47c0-.13-.09-.14-.19-.14h0v-.09H6.51s0,.09,0,.14,0,.2,0,.27h0l-.09,0h0c0-.17,0-.3-.32-.3H5.74V15H6c.16,0,.18-.08.2-.23h.1c0,.1,0,.21,0,.32s0,.2,0,.31h0l-.09,0h0c0-.16,0-.25-.2-.26H5.74v.62c0,.16.14.16.32.16s.45,0,.54-.32h0l.09,0h0c0,.14-.07.29-.09.43h0Z"/><path id="_Trazado_compuesto_9" data-name="&lt;Trazado compuesto&gt;" class="cls-1" d="M7.38,15.15h.13c.27,0,.42-.1.42-.42a.37.37,0,0,0-.39-.39H7.38ZM7,14.52c0-.2-.11-.2-.19-.2h0v-.08h.85c.34,0,.64.09.64.47a.51.51,0,0,1-.37.47l.46.69a.3.3,0,0,0,.26.16v.08H8.12a7.5,7.5,0,0,1-.56-.87H7.38v.58c0,.21.1.22.22.22h0v.08H6.8V16h0c.1,0,.19,0,.19-.15Z"/><path id="_Trazado_compuesto_10" data-name="&lt;Trazado compuesto&gt;" class="cls-1" d="M7.52,15.13c.27,0,.4-.1.4-.41a.36.36,0,0,0-.38-.38H7.4v.78Zm-.13,0h0v-.83h.16a.38.38,0,0,1,.41.41c0,.32-.16.43-.43.43Zm0,.07h.19a8.33,8.33,0,0,0,.55.87h.51V16a.31.31,0,0,1-.26-.17l-.47-.7h0a.5.5,0,0,0,.37-.46c0-.37-.29-.46-.63-.46H6.81v.06h0c.08,0,.2,0,.2.22v1.37c0,.11-.1.16-.2.16h0v.06h.83V16h0c-.12,0-.23,0-.23-.23v-.59Zm1.26.9H8.11a7.53,7.53,0,0,1-.56-.87H7.4v.56c0,.2.08.2.21.2h.06v.09H6.79V16h.06c.1,0,.18,0,.18-.13V14.52c0-.19-.1-.19-.18-.19H6.79v-.09h.86c.34,0,.65.09.65.49a.52.52,0,0,1-.37.48l.45.68a.29.29,0,0,0,.25.16h0v.09Z"/><path id="_Trazado_14" data-name="&lt;Trazado&gt;" class="cls-1" d="M10.47,15.59h0v-1a.22.22,0,0,0-.23-.25h-.06v-.08h.71v.08h0c-.11,0-.24,0-.24.34v1.23a1.77,1.77,0,0,0,0,.27h-.1L9.14,14.61v1.11c0,.23,0,.32.25.32h0v.08H8.72V16h0c.19,0,.24-.13.24-.34V14.56a.24.24,0,0,0-.25-.24h0v-.08h.55Z"/><path id="_Trazado_compuesto_11" data-name="&lt;Trazado compuesto&gt;" class="cls-1" d="M10.46,15.58h0Zm0,0h0Zm.05.56h.09a1.86,1.86,0,0,1,0-.26V14.66c0-.32.14-.35.25-.35h0v-.06h-.69v.06h0a.24.24,0,0,1,.25.27v1h0l-1.2-1.36H8.73v.06h0a.25.25,0,0,1,.26.25v1.14c0,.22-.06.35-.25.35h0v.06h.69V16h0c-.21,0-.27-.09-.27-.33V14.58Zm.1,0h-.11L9.15,14.64v1.08c0,.23,0,.3.24.3h.06v.09H8.71V16h0c.18,0,.23-.12.23-.33V14.56a.23.23,0,0,0-.23-.23h0v-.09h.57l1.19,1.33v-1c0-.21-.14-.24-.22-.24h-.07v-.09h.73v.09h-.05c-.11,0-.23,0-.23.33v1.23a1.71,1.71,0,0,0,0,.27h0Z"/><path id="_Trazado_compuesto_12" data-name="&lt;Trazado compuesto&gt;" class="cls-1" d="M11.72,14.54h0l-.25.76H12Zm-.39,1.19a1.08,1.08,0,0,0-.06.21c0,.08.11.09.2.09h0v.08h-.62V16h0a.24.24,0,0,0,.23-.18l.43-1.24a2.27,2.27,0,0,0,.1-.33,1.39,1.39,0,0,0,.25-.12h0l0,.07.5,1.41c0,.09.06.19.1.28a.17.17,0,0,0,.18.11h0v.08H12V16h0c.06,0,.17,0,.17-.08a.85.85,0,0,0-.05-.19l-.1-.31h-.61Z"/><path id="_Trazado_compuesto_13" data-name="&lt;Trazado compuesto&gt;" class="cls-1" d="M11.71,14.54h0Zm-.23.75H12l-.23-.72Zm0,0,.26-.79h0l.26.79Zm.55.79h.75V16h0a.18.18,0,0,1-.19-.12c0-.08-.07-.18-.1-.28L12,14.25l0-.06h0a1,1,0,0,1-.24.11,2.24,2.24,0,0,1-.1.34l-.43,1.24a.26.26,0,0,1-.25.18h0v.06h.59V16h0c-.09,0-.21,0-.21-.11a1,1,0,0,1,.06-.21h0l.09-.29H12l.11.32a.83.83,0,0,1,.05.2c0,.08-.12.09-.18.09h0Zm.76,0H12V16h0c.06,0,.16,0,.16-.07a.87.87,0,0,0-.05-.19l-.1-.3h-.59l-.08.27a1.13,1.13,0,0,0-.06.21c0,.07.1.08.19.08h0v.09h-.64V16h0a.23.23,0,0,0,.22-.17l.43-1.24a3.13,3.13,0,0,0,.11-.34,1.39,1.39,0,0,0,.24-.12h0l0,0,0,.07.5,1.41c0,.09.06.19.1.27a.16.16,0,0,0,.17.1h0v.09Z"/><path id="_Trazado_15" data-name="&lt;Trazado&gt;" class="cls-1" d="M12.88,14.37c-.2,0-.21,0-.25.25h-.08c0-.08,0-.15,0-.23a1.62,1.62,0,0,0,0-.23h.06c0,.08.09.08.16.08h1.39c.07,0,.14,0,.15-.08h.06c0,.07,0,.15,0,.22s0,.15,0,.22l-.08,0c0-.1,0-.26-.2-.26h-.44V15.8c0,.21.09.23.22.23h.05v.08H13V16h.05c.15,0,.22,0,.22-.23V14.37Z"/><path id="_Trazado_16" data-name="&lt;Trazado&gt;" class="cls-1" d="M13.94,16.13H13V16h.06c.15,0,.21,0,.21-.21V14.38h0v1.45c0,.22-.09.24-.24.24h0v.06h.87V16h0c-.13,0-.23,0-.24-.24V14.36h.45c.18,0,.2.15.21.25l.06,0c0-.07,0-.14,0-.21s0-.14,0-.21h0c0,.08-.09.08-.16.08H12.81c-.06,0-.13,0-.16-.08h0a1.59,1.59,0,0,1,0,.22c0,.07,0,.15,0,.22h.06c0-.19.06-.25.26-.25h0c-.2,0-.2,0-.24.24h-.1c0-.08,0-.15,0-.23a1.57,1.57,0,0,0,0-.23h.09c0,.07.07.07.14.07h1.41c.07,0,.13,0,.13-.07h.09c0,.07,0,.15,0,.22s0,.14,0,.22h0l-.1,0v0c0-.1,0-.25-.19-.25h-.43V15.8c0,.2.08.22.21.22H14v.09Z"/><path id="_Trazado_17" data-name="&lt;Trazado&gt;" class="cls-1" d="M14.53,16h0c.1,0,.2,0,.2-.15V14.47c0-.14-.1-.15-.2-.15h0v-.08h.82v.08h0c-.1,0-.2,0-.2.15v1.41c0,.14.1.15.2.15h0v.08h-.82Z"/><path id="_Trazado_compuesto_14" data-name="&lt;Trazado compuesto&gt;" class="cls-1" d="M15.34,16.11V16h0c-.1,0-.21,0-.21-.17V14.47c0-.15.11-.17.21-.17h0v-.06h-.8v.06h0c.1,0,.21,0,.21.17v1.41c0,.15-.12.17-.21.17h0v.06h.8m0,0h-.83V16h0c.1,0,.19,0,.19-.14V14.47c0-.13-.09-.14-.19-.14h0v-.09h.85v.09h0c-.1,0-.19,0-.19.14v1.41c0,.13.09.14.19.14h0v.09Z"/><path id="_Trazado_compuesto_15" data-name="&lt;Trazado compuesto&gt;" class="cls-1" d="M16.46,16c.52,0,.61-.46.61-.85s-.21-.87-.66-.87-.61.42-.61.78.22.94.66.94m0-1.84a1,1,0,0,1,1,.93,1,1,0,0,1-1,1,1,1,0,0,1-1-1,1,1,0,0,1,1-1"/><path id="_Trazado_compuesto_16" data-name="&lt;Trazado compuesto&gt;" class="cls-1" d="M15.79,15.1c0-.36.14-.79.62-.79s.67.49.67.88-.09.87-.63.87h0c.51,0,.6-.45.6-.84s-.21-.86-.65-.86-.6.41-.6.77.22.93.65.93h0c-.45,0-.67-.47-.67-1m-.38.09a1,1,0,0,1,1-1h0a1,1,0,0,0-1,1,.94.94,0,0,0,1,1,1,1,0,0,0,1-1,.93.93,0,0,0-1-.92h0a1,1,0,0,1,1,.94,1,1,0,0,1-1,1,1,1,0,0,1-1-1"/><path id="_Trazado_18" data-name="&lt;Trazado&gt;" class="cls-1" d="M19.27,15.59h0v-1a.22.22,0,0,0-.24-.25H19v-.08h.71v.08h0c-.11,0-.24,0-.24.34v1.23a1.72,1.72,0,0,0,0,.27h-.1l-1.39-1.55v1.11c0,.23,0,.32.25.32h0v.08h-.71V16h0c.19,0,.24-.13.24-.34V14.56a.24.24,0,0,0-.25-.24h0v-.08h.55Z"/><path id="_Trazado_compuesto_17" data-name="&lt;Trazado compuesto&gt;" class="cls-1" d="M19.27,15.58h0Zm0,0h0Zm.05.56h.09a1.89,1.89,0,0,1,0-.26V14.66c0-.32.14-.35.25-.35h0v-.06H19v.06h0a.24.24,0,0,1,.25.27v1h0l-1.2-1.36h-.54v.06h0a.25.25,0,0,1,.26.25v1.14c0,.22-.06.35-.25.35h0v.06h.69V16h0c-.21,0-.26-.09-.26-.33V14.58Zm.1,0h-.11l-1.37-1.52v1.08c0,.23,0,.3.24.3h.06v.09h-.74V16h0c.18,0,.23-.11.23-.33V14.56a.23.23,0,0,0-.23-.23h0v-.09h.57l1.18,1.33v-1c0-.21-.14-.24-.22-.24H19v-.09h.73v.09h-.05c-.11,0-.23,0-.23.33v1.23a1.77,1.77,0,0,0,0,.27h0Z"/><path id="_Trazado_compuesto_18" data-name="&lt;Trazado compuesto&gt;" class="cls-1" d="M20.52,14.54h0l-.25.76h.5Zm-.39,1.19a1.13,1.13,0,0,0-.06.21c0,.08.11.09.2.09h0v.08h-.62V16h0a.24.24,0,0,0,.23-.18l.43-1.24a2.2,2.2,0,0,0,.1-.33,1.4,1.4,0,0,0,.25-.12h0l0,.07.5,1.41c0,.09.06.19.1.28a.17.17,0,0,0,.18.11h0v.08h-.78V16h0c.06,0,.17,0,.17-.08a.86.86,0,0,0-.05-.19l-.1-.31h-.61Z"/><path id="_Trazado_compuesto_19" data-name="&lt;Trazado compuesto&gt;" class="cls-1" d="M20.51,14.54h0Zm-.23.75h.47l-.23-.72Zm0,0,.26-.79h0l.25.79Zm.55.79h.75V16h0a.18.18,0,0,1-.19-.12c0-.08-.07-.18-.1-.28l-.5-1.41,0-.06h0a1,1,0,0,1-.24.11,2.29,2.29,0,0,1-.1.34l-.43,1.24a.26.26,0,0,1-.25.18h0v.06h.59V16h0c-.09,0-.21,0-.21-.11a1.12,1.12,0,0,1,.06-.21h0l.09-.29h.63l.11.32A.83.83,0,0,1,21,16c0,.08-.12.09-.18.09h0Zm.76,0h-.79V16h0c.06,0,.16,0,.16-.07a.86.86,0,0,0-.05-.19l-.1-.3h-.6l-.08.27a1.11,1.11,0,0,0-.06.21c0,.07.1.08.19.08h0v.09h-.64V16h0a.23.23,0,0,0,.22-.17l.43-1.24a3.42,3.42,0,0,0,.11-.34,1.46,1.46,0,0,0,.25-.12h0a0,0,0,0,1,0,0l0,.07.5,1.41c0,.09.06.19.1.27a.16.16,0,0,0,.17.1h0v.09Z"/><path id="_Trazado_19" data-name="&lt;Trazado&gt;" class="cls-1" d="M22.24,15.85c0,.11.07.14.16.15a2,2,0,0,0,.36,0,.38.38,0,0,0,.26-.15.61.61,0,0,0,.08-.19h.08c0,.15-.07.31-.1.46H21.66V16h0c.1,0,.2,0,.2-.18V14.47c0-.14-.11-.15-.2-.15h0v-.08h.84v.08h-.07c-.1,0-.18,0-.18.15Z"/><path id="_Trazado_compuesto_20" data-name="&lt;Trazado compuesto&gt;" class="cls-1" d="M23.07,16.11c0-.15.07-.29.1-.43h-.06a.61.61,0,0,1-.08.19.4.4,0,0,1-.27.15H22.4c-.09,0-.17,0-.17-.16V14.46c0-.15.09-.16.2-.16h.06v-.06h-.81v.06h0c.1,0,.21,0,.21.17v1.39c0,.17-.12.19-.21.19h0v.06h1.4m0,0H21.65V16h0c.1,0,.19,0,.19-.17V14.47c0-.13-.09-.14-.19-.14h0v-.09h.86v.09h-.08c-.1,0-.17,0-.17.13v1.39c0,.1.07.13.15.14h.35a.38.38,0,0,0,.25-.14.6.6,0,0,0,.08-.19h.1c0,.15-.07.3-.1.46h0Z"/><path id="_Trazado_compuesto_21" data-name="&lt;Trazado compuesto&gt;" class="cls-1" d="M23.1,14.44h0s.05,0,.05-.07a.05.05,0,0,0-.06-.06h0Zm-.1.15h0s0,0,0,0v-.21s0,0,0,0h.15c.05,0,.1,0,.1.08a.09.09,0,0,1-.07.09l0,.06.06.07h-.06s0-.06-.1-.13h0v.09s0,0,0,0H23Zm.14.08a.23.23,0,1,0-.23-.23.23.23,0,0,0,.23.23m0-.51a.28.28,0,1,1-.28.28.28.28,0,0,1,.28-.28"/></g></g></g></svg>