<?xml version="1.0" encoding="utf-8"?>
<!-- Generator: Adobe Illustrator 23.0.1, SVG Export Plug-In . SVG Version: 6.00 Build 0)  -->
<svg version="1.1" id="Capa_1" xmlns="http://www.w3.org/2000/svg" xmlns:xlink="http://www.w3.org/1999/xlink" x="0px" y="0px"
	 viewBox="0 0 400 400" style="enable-background:new 0 0 400 400;" xml:space="preserve">
<style type="text/css">
	.st0{fill:#FF8000;}
</style>
<g>
	<g>
		<g>
			
				<rect x="174.84" y="258.33" transform="matrix(2.581917e-03 -1 1 2.581917e-03 -113.1478 473.2867)" class="st0" width="11.68" height="70.07"/>
			<path class="st0" d="M101.96,313.14l-15.53,62.04l180.7,0.47l-15.2-62.12L101.96,313.14z M176.84,353.89
				c-7.99-0.02-14.12-6.18-14.1-14.17c0.02-7.99,6.18-14.12,14.17-14.1s14.12,6.18,14.1,14.17
				C190.99,347.78,184.21,353.91,176.84,353.89z"/>
			<path class="st0" d="M203.45,44.2L203.45,44.2c0.03-11.06-9.78-19.69-22.08-19.72c-12.29-0.03-22.15,8.55-22.18,19l0,0.61
				c-35.66,4.82-62.75,21.96-67.72,43.46l179.47,0.46C266.08,67.1,239.09,49.21,203.45,44.2z"/>
			<path class="st0" d="M306.54,107.15l-36.88-0.1l0.63-4.92l-178.24-0.46l29.67,171.55l118.01,0.3l27.44-152.35l32.57,0.08
				l-0.29,113.09c-0.01,3.69,3.06,6.77,6.74,6.78s6.77-3.06,6.78-6.74l0.31-119.85C313.91,110.25,310.85,107.16,306.54,107.15z"/>
		</g>
	</g>
</g>
</svg>
