<?xml version="1.0" encoding="utf-8"?>
<!-- Generator: Adobe Illustrator 23.0.1, SVG Export Plug-In . SVG Version: 6.00 Build 0)  -->
<svg version="1.1" id="Capa_1" xmlns="http://www.w3.org/2000/svg" xmlns:xlink="http://www.w3.org/1999/xlink" x="0px" y="0px"
	 viewBox="0 0 400 400" style="enable-background:new 0 0 400 400;" xml:space="preserve">
<style type="text/css">
	.st0{fill:#FF8000;}
</style>
<g>
	<path class="st0" d="M380.86,249.7l-39.84-63.5l0.27-104.64c0.02-7.39-3.04-14.16-7.95-19.72l0,0c-4.91-4.94-12.29-8.03-19.68-8.05
		L87.15,53.21c-7.39-0.02-14.16,3.04-19.72,7.95l0,0c-4.94,4.91-8.03,12.29-8.05,19.68l-0.27,104.64l-40.17,63.29L380.86,249.7z
		 M308.65,86.4l-0.21,81.25c-20.91-5.59-57.21-12.46-108.3-12.59c-51.09-0.13-87.42,6.54-108.36,12.03l0.21-81.25L308.65,86.4z"/>
	<polygon class="st0" points="18.27,269.08 18.19,301.09 56.35,301.18 56.24,346.12 88.24,346.2 88.36,301.27 311.18,301.84 
		311.06,346.77 343.07,346.86 343.18,301.92 381.34,302.02 381.43,270.02 	"/>
	<path class="st0" d="M187.27,137.79l0.05-19.08c0.03-11.08-16.57-20.35-36.26-20.41c-19.7-0.05-36.95,9.14-36.98,20.83l-0.07,28.31
		c0,0,21.56-5.48,36.33-6.68C163.87,139.58,187.27,137.79,187.27,137.79z"/>
	<path class="st0" d="M286.34,147.9l0.07-28.31c0.03-11.08-16.57-20.35-36.26-20.41c-19.7-0.05-36.34,9.14-36.37,20.22l-0.05,19.08
		c0,0,23.39,1.29,36.92,2.56C264.81,142.3,286.34,147.9,286.34,147.9z"/>
</g>
</svg>
