<svg id="Layer_1" enable-background="new 0 0 472.16 472.16" height="512" viewBox="0 0 472.16 472.16" width="512" xmlns="http://www.w3.org/2000/svg"><path d="m464.12 333.55c.02 13.26-10.73 24.03-24 24.03h-179.45l17.33 78h-92l17.33-78h-179.33c-13.25 0-24-10.75-24-24v-281c0-13.25 10.75-24 24-24h416c13.25 0 24 10.75 24 24z" fill="#d6f4fc"/><path d="m464 52.58v5.93c0 13.95-11.84 24.96-25.75 23.94-266.205-19.542-398.25 119.068-398.25 251.13 0 .81.04 1.6.12 2.37 1.47 14.05-12.06 25.19-25.14 19.88-8.79-3.57-14.98-12.19-14.98-22.25v-281c0-13.255 10.745-24 24-24h416c13.255 0 24 10.745 24 24z" fill="#e8f8fc"/><path d="m260.67 357.58 17.33 78h-92l17.33-78z" fill="#bdeffc"/><path d="m267.45 388.09h-70.9l6.78-30.51h57.34z" fill="#9fe2f5"/><path d="m308 443.58h-152c-4.418 0-8-3.582-8-8s3.582-8 8-8h152c4.418 0 8 3.582 8 8s-3.582 8-8 8z" fill="#2c2c33"/><path d="m464.09 301.558.03 31.79c.02 13.26-10.73 24.03-24 24.03-12.039 0-405.175 0-416.12 0-13.25 0-24-10.75-24-24v-31.82z" fill="#bdeffc"/><g fill="#9fe2f5"><path d="m413.94 385.79c-5.855 5.835-15.342 5.818-21.2 0-5.889-5.889-5.851-15.389-.01-21.23 5.87-5.84 15.38-5.83 21.21 0 5.855 5.834 5.889 15.341 0 21.23z"/><path d="m366.575 349.719c-3.125-3.124-3.126-8.189-.003-11.314 20.321-20.332 53.215-20.332 73.545-.001 3.125 3.124 3.125 8.189 0 11.313-3.124 3.124-8.189 3.124-11.313 0-14.071-14.071-36.842-14.082-50.915-.001-3.124 3.124-8.189 3.126-11.314.003z"/><path d="m336.873 320.017c-3.124-3.125-3.124-8.19 0-11.314 36.771-36.768 96.28-36.658 132.944 0 3.125 3.124 3.125 8.189 0 11.313-3.124 3.124-8.189 3.124-11.313 0-30.286-30.223-79.793-30.524-110.317 0-3.125 3.125-8.189 3.125-11.314.001z"/></g><path d="m40.12 335.95c1.525 14.534-13.204 26.563-27.54 18.74-.01 0-.01-.01-.01-.01-.776-.411-1.9-1.106-2.93-1.87-.01 0-.01-.01-.02-.01-5.712-4.379-9.62-11.049-9.62-19.22v-31.82h42.55c-2.493 15.527-2.803 30.598-2.43 34.19z" fill="#d6f4fc"/></svg>