<svg id="Layer_1" fill="white" enable-background="new 0 0 480.158 480.158" height="512" viewBox="0 0 480.158 480.158" width="512" xmlns="http://www.w3.org/2000/svg"><path d="m323.983 444.107c-.273 4.253-3.993 7.471-8.255 7.471h-151.456c-4.262 0-7.982-3.218-8.255-7.471-.299-4.66 3.388-8.529 7.983-8.529h23.58l8.828-39.735c.813-3.66 4.06-6.265 7.81-6.265h71.565c3.75 0 6.996 2.604 7.81 6.265l8.828 39.735h23.579c4.595.001 8.282 3.87 7.983 8.529zm34.459-81.988c-1.187-2.572-1.926-5.363-2.144-8.247-.306-4.04-3.422-7.269-7.463-7.55-11.439-.796-20.969-9.847-22.19-21.361-.433-4.085-3.844-7.201-7.952-7.201h-310.693c-4.418 0-8 3.582-8 8v15.82c0 17.673 14.327 32 32 32h319.234c5.891-.001 9.676-6.113 7.208-11.461zm121.588-80.186c-.042-31.533-.03-21.034-.03-221.35 0-17.673-14.327-32.005-32-32.005h-416c-17.673 0-32 14.327-32 32v233.18c0 4.418 3.582 8 8 8h326.434c1.891 0 3.7-.712 5.132-1.948 36.729-31.729 88.776-34.804 128.389-10.989 5.317 3.197 12.084-.684 12.075-6.888zm-79.29 90.626c-9.442 9.442-2.676 25.61 10.6 25.61 13.412 0 19.964-16.222 10.61-25.61-5.847-5.847-15.342-5.869-21.21 0zm77.07-55.86c-36.738-36.738-96.199-36.731-132.93 0-5.062 5.062-1.405 13.66 5.65 13.66 2.05 0 4.1-.78 5.66-2.34 30.46-30.481 79.828-30.502 110.31 0 3.12 3.12 8.19 3.12 11.31 0 3.13-3.13 3.13-8.19 0-11.32zm-103.23 29.7c-5.076 5.059-1.381 13.66 5.65 13.66 2.05 0 4.1-.78 5.66-2.35 14.062-14.062 36.842-14.068 50.91 0 3.12 3.13 8.19 3.13 11.31 0 3.13-3.12 3.13-8.19 0-11.31-20.326-20.326-53.209-20.322-73.53 0z"/></svg>