<svg xmlns="http://www.w3.org/2000/svg" viewBox="0 0 38.69 31.69"><defs><style>.cls-1{fill:#fff;}</style></defs><title>libro-reclam</title><g id="Capa_2" data-name="Capa 2"><g id="Capa_1-2" data-name="Capa 1"><path class="cls-1" d="M8.56,23a10.16,10.16,0,0,1,6.77,0A.85.85,0,1,0,16,21.42a11.81,11.81,0,0,0-8,0A.85.85,0,1,0,8.56,23Z"/><path class="cls-1" d="M16,17.72a11.82,11.82,0,0,0-8,0,.85.85,0,0,0,.63,1.58,10.23,10.23,0,0,1,6.77,0A.85.85,0,1,0,16,17.72Z"/><path class="cls-1" d="M8.56,15.61a10.16,10.16,0,0,1,6.77,0A.85.85,0,1,0,16,14a11.81,11.81,0,0,0-8,0,.85.85,0,1,0,.63,1.58Z"/><path class="cls-1" d="M8.56,11.91a10.16,10.16,0,0,1,6.77,0A.85.85,0,1,0,16,10.33a11.81,11.81,0,0,0-8,0,.85.85,0,0,0,.63,1.58Z"/><path class="cls-1" d="M8.56,8.21a10.17,10.17,0,0,1,6.77,0A.85.85,0,1,0,16,6.63a11.81,11.81,0,0,0-8,0,.85.85,0,0,0,.63,1.58Z"/><path class="cls-1" d="M37.84,4.1H35V2.49a.85.85,0,0,0-.51-.78c-.36-.16-8.72-3.65-15.13-.17-6.41-3.47-14.77,0-15.13.17a.85.85,0,0,0-.52.78V4.1H.85A.85.85,0,0,0,0,5v24a2.75,2.75,0,0,0,2.75,2.75H35.94a2.75,2.75,0,0,0,2.75-2.75V5A.85.85,0,0,0,37.84,4.1Zm-4.55-1V27.33a39.85,39.85,0,0,0-7.89-.89,17.38,17.38,0,0,0-5.2.67V3C25,.4,31.44,2.4,33.29,3.07ZM5.4,3.07C7.24,2.4,13.64.4,18.49,3V27.11c-1.87-.59-5.89-1.24-13.09.22ZM37,28.95a1,1,0,0,1-1,1H2.75a1,1,0,0,1-1-1V5.8h2V28.38a.85.85,0,0,0,.85.85l.18,0c10.4-2.31,14.07-.17,14.15-.12l.05,0h0l.2.08h0l.21,0h0l.19,0,.06,0,.11,0,0,0h0s3.68-2.21,14.15.12l.18,0a.85.85,0,0,0,.85-.85V5.8h2Z"/><path class="cls-1" d="M23,23.06a.85.85,0,0,0,.31-.06,10.24,10.24,0,0,1,6.77,0,.85.85,0,0,0,.63-1.58,11.82,11.82,0,0,0-8,0A.85.85,0,0,0,23,23.06Z"/><path class="cls-1" d="M23,19.37a.85.85,0,0,0,.31-.06,10.25,10.25,0,0,1,6.77,0,.85.85,0,0,0,.63-1.58,11.81,11.81,0,0,0-8,0A.85.85,0,0,0,23,19.37Z"/><path class="cls-1" d="M23,15.67a.85.85,0,0,0,.31-.06,10.24,10.24,0,0,1,6.77,0A.85.85,0,0,0,30.75,14a11.82,11.82,0,0,0-8,0A.85.85,0,0,0,23,15.67Z"/><path class="cls-1" d="M23,12a.85.85,0,0,0,.31-.06,10.24,10.24,0,0,1,6.77,0,.85.85,0,0,0,.63-1.58,11.82,11.82,0,0,0-8,0A.85.85,0,0,0,23,12Z"/><path class="cls-1" d="M23,8.27a.85.85,0,0,0,.31-.06,10.24,10.24,0,0,1,6.77,0,.85.85,0,0,0,.63-1.58,11.82,11.82,0,0,0-8,0A.85.85,0,0,0,23,8.27Z"/></g></g></svg>