<?xml version="1.0" encoding="utf-8"?>
<!-- Generator: Adobe Illustrator 23.0.1, SVG Export Plug-In . SVG Version: 6.00 Build 0)  -->
<svg version="1.1" id="Capa_1" xmlns="http://www.w3.org/2000/svg" xmlns:xlink="http://www.w3.org/1999/xlink" x="0px" y="0px"
	 viewBox="0 0 400 400" style="enable-background:new 0 0 400 400;" xml:space="preserve">
<style type="text/css">
	.st0{fill:#FF8000;}
</style>
<g>
	<path class="st0" d="M103.04,374.33l-27.67-0.07l0.05-18.45l-24.37-0.06c-4.61-0.01-7.9-3.31-7.88-7.93l0.55-214.1
		c0.01-4.61,3.31-7.9,7.93-7.88l296.45,0.77c4.61,0.01,7.9,3.31,7.88,7.93l-0.55,214.1c-0.01,4.61-3.31,7.9-7.93,7.88l-24.37-0.06
		l-0.05,18.45l-27.67-0.07l0.05-18.45l-192.36-0.5L103.04,374.33z M88.03,318.95l223.33,0.58c4.61,0.01,7.91-3.27,7.93-7.88
		l0.36-140.32c0.01-4.61-3.27-7.91-7.88-7.93l-223.33-0.58c-4.61-0.01-7.91,3.27-7.93,7.88l-0.36,140.32
		C80.13,315.64,83.42,318.94,88.03,318.95z"/>
	<path class="st0" d="M51.89,25.04L349,25.81c4.61,0.01,7.9,3.31,7.88,7.93l-0.15,57.97c-0.01,4.61-3.31,7.9-7.93,7.88L51.7,98.83
		c-4.61-0.01-7.9-3.31-7.88-7.93l0.15-57.97C43.98,28.32,47.28,25.03,51.89,25.04z M190.8,61.64c0.03-9.88-8.52-18.47-18.4-18.49
		s-17.81,8.52-17.83,18.4s7.86,18.47,18.4,18.49C182.19,80.06,190.77,72.18,190.8,61.64z M246.14,61.78
		c0.03-9.88-8.52-18.47-18.4-18.49s-18.47,8.52-17.83,18.4c-0.03,9.88,7.86,18.47,18.4,18.49
		C237.53,80.86,246.11,72.32,246.14,61.78z M300.82,62.58c0.03-9.88-8.52-18.47-18.4-18.49c-9.88-0.03-18.47,8.52-18.49,18.4
		s8.52,18.47,18.4,18.49C292.86,80.35,300.79,72.46,300.82,62.58z M99.23,61.4c-0.03,9.88,7.86,18.47,17.74,18.49
		s18.47-7.86,18.49-18.4c0.03-9.88-7.86-18.47-17.74-18.49C107.18,42.97,99.26,51.52,99.23,61.4z"/>
	<path class="st0" d="M291.24,198.92l-0.22,84.98c-0.01,4.61-3.31,7.9-7.93,7.88l-167.99-0.43c-4.61-0.01-7.9-3.31-7.88-7.93
		l0.22-84.98c0.01-4.61,3.31-7.9,7.93-7.88L283.36,191C287.97,191.01,291.25,194.97,291.24,198.92z M150.07,273l43.59-43.37
		c3.3-3.29,3.31-7.9,0.03-11.2l-7.23-7.27c-3.29-3.3-7.9-3.31-11.2-0.03l-43.59,43.37c-3.3,3.29-3.31,7.9-0.03,11.2l7.88,7.93
		C142.16,276.27,147.43,276.29,150.07,273z M205.43,265.24l7.88,7.93c3.29,3.3,7.9,3.31,11.2,0.03
		c14.53-14.46,29.06-28.91,43.59-43.37c3.3-3.29,3.31-7.9,0.03-11.2l-7.88-7.93c-3.29-3.3-7.9-3.31-11.2-0.03
		c-14.53,14.46-29.06,28.91-43.59,43.37C202.15,257.32,202.14,261.93,205.43,265.24z"/>
</g>
</svg>
