<?xml version="1.0" encoding="utf-8"?>
<!-- Generator: Adobe Illustrator 21.1.0, SVG Export Plug-In . SVG Version: 6.00 Build 0)  -->
<svg version="1.1"
	 id="svg3062" inkscape:version="0.91 r13725" sodipodi:docname="20161015102817!Mastercard-logo.svg" xmlns:cc="http://creativecommons.org/ns#" xmlns:dc="http://purl.org/dc/elements/1.1/" xmlns:inkscape="http://www.inkscape.org/namespaces/inkscape" xmlns:rdf="http://www.w3.org/1999/02/22-rdf-syntax-ns#" xmlns:sodipodi="http://sodipodi.sourceforge.net/DTD/sodipodi-0.dtd" xmlns:svg="http://www.w3.org/2000/svg"
	 xmlns="http://www.w3.org/2000/svg" xmlns:xlink="http://www.w3.org/1999/xlink" x="0px" y="0px" viewBox="0 0 1200 933.5"
	 style="enable-background:new 0 0 1200 933.5;" xml:space="preserve">
<style type="text/css">
	.st0{fill:#FFFFFF;}
	.st1{fill:#F79410;}
	.st2{fill:#FF5F00;}
	.st3{fill:#EB001B;}
	.st4{fill:#F79E1B;}
</style>
<sodipodi:namedview  bordercolor="#666666" borderopacity="1.0" fit-margin-bottom="0" fit-margin-left="0" fit-margin-right="0" fit-margin-top="0" id="base" inkscape:current-layer="layer1" inkscape:cx="1455.4322" inkscape:cy="185.09734" inkscape:document-units="px" inkscape:pageopacity="0.0" inkscape:pageshadow="2" inkscape:window-height="706" inkscape:window-maximized="1" inkscape:window-width="1280" inkscape:window-x="-8" inkscape:window-y="-8" inkscape:zoom="0.35000001" pagecolor="#ffffff" showgrid="false">
	</sodipodi:namedview>
<g id="layer1" transform="translate(1656.9594,-434.93107)" inkscape:groupmode="layer" inkscape:label="Layer 1">
	<g id="g5473" transform="matrix(18.862379,0,0,18.862379,-21277.291,-12371.246)">
		<g id="g3806" transform="matrix(1.25,0,0,-1.25,1102.5407,727.74493)">
			<path id="path3808" inkscape:connector-curvature="0" class="st0" d="M0,0v-0.1h0.1c0,0,0,0,0.1,0c0,0,0,0,0,0s0,0,0,0
				C0.1,0,0.1,0,0,0L0,0z M0.1,0.1c0,0,0.1,0,0.1,0s0-0.1,0-0.1c0,0,0-0.1,0-0.1c0,0-0.1,0-0.1,0l0.1-0.1H0.2L0-0.2h0v-0.1h-0.1v0.4
				C-0.1,0.1,0.1,0.1,0.1,0.1z M0.1-0.4c0,0,0.1,0,0.1,0c0,0,0.1,0,0.1,0.1c0,0,0.1,0.1,0.1,0.1c0,0,0,0.1,0,0.1s0,0.1,0,0.1
				c0,0,0,0.1-0.1,0.1c0,0-0.1,0.1-0.1,0.1c0,0-0.1,0-0.1,0s-0.1,0-0.1,0c0,0-0.1,0-0.1-0.1S-0.2,0-0.2,0c0,0,0-0.1,0-0.1
				s0-0.1,0-0.1c0,0,0-0.1,0.1-0.1c0,0,0.1-0.1,0.1-0.1C0-0.4,0-0.4,0.1-0.4 M0.1,0.3c0.1,0,0.1,0,0.2,0c0.1,0,0.1-0.1,0.1-0.1
				c0,0,0.1-0.1,0.1-0.1c0-0.1,0-0.1,0-0.2s0-0.1,0-0.2c0-0.1-0.1-0.1-0.1-0.1c0,0-0.1-0.1-0.1-0.1c-0.1,0-0.1,0-0.2,0
				c-0.1,0-0.1,0-0.2,0s-0.1,0.1-0.1,0.1c0,0-0.1,0.1-0.1,0.1s0,0.1,0,0.2s0,0.1,0,0.2c0,0.1,0.1,0.1,0.1,0.1c0,0,0.1,0.1,0.1,0.1
				C0,0.3,0,0.3,0.1,0.3 M-38.9,1.8c0,0.7,0.5,1.3,1.3,1.3c0.8,0,1.3-0.6,1.3-1.3s-0.5-1.3-1.3-1.3C-38.4,0.4-38.9,1-38.9,1.8
				 M-35.5,1.8v2.1h-0.9V3.4C-36.7,3.7-37.1,4-37.7,4c-1.2,0-2.1-0.9-2.1-2.2c0-1.3,0.9-2.2,2.1-2.2c0.6,0,1,0.2,1.3,0.6v-0.5h0.9
				C-35.5-0.3-35.5,1.8-35.5,1.8z M-4.8,1.8c0,0.7,0.5,1.3,1.3,1.3c0.8,0,1.3-0.6,1.3-1.3s-0.5-1.3-1.3-1.3C-4.3,0.4-4.8,1-4.8,1.8
				 M-1.4,1.8v3.8h-0.9V3.4C-2.6,3.7-3.1,4-3.7,4c-1.2,0-2.1-0.9-2.1-2.2c0-1.3,0.9-2.2,2.1-2.2c0.6,0,1,0.2,1.3,0.6v-0.5h0.9
				C-1.4-0.3-1.4,1.8-1.4,1.8z M-24.2,3.2c0.6,0,1-0.4,1.1-1h-2.2C-25.3,2.7-24.9,3.2-24.2,3.2 M-24.2,4c-1.2,0-2.1-0.9-2.1-2.2
				c0-1.3,0.9-2.2,2.1-2.2c0.6,0,1.2,0.2,1.7,0.6l-0.4,0.7c-0.4-0.3-0.8-0.4-1.2-0.4c-0.6,0-1.1,0.3-1.2,1h3.1c0,0.1,0,0.2,0,0.3
				C-22.2,3.1-23,4-24.2,4 M-13.3,1.8c0,0.7,0.5,1.3,1.3,1.3c0.8,0,1.3-0.6,1.3-1.3s-0.5-1.3-1.3-1.3C-12.8,0.4-13.3,1-13.3,1.8
				 M-9.9,1.8v2.1h-0.9V3.4C-11.1,3.7-11.5,4-12.1,4c-1.2,0-2.1-0.9-2.1-2.2c0-1.3,0.9-2.2,2.1-2.2c0.6,0,1,0.2,1.3,0.6v-0.5h0.9
				C-9.9-0.3-9.9,1.8-9.9,1.8z M-18.4,1.8c0-1.3,0.9-2.2,2.2-2.2c0.6,0,1,0.1,1.5,0.5l-0.4,0.7c-0.3-0.2-0.7-0.4-1.1-0.4
				c-0.7,0-1.3,0.5-1.3,1.3s0.5,1.3,1.3,1.3c0.4,0,0.8-0.1,1.1-0.4l0.4,0.7C-15.1,3.8-15.5,4-16.2,4C-17.5,4-18.4,3-18.4,1.8
				 M-6.7,4c-0.5,0-0.9-0.2-1.1-0.6v0.5h-0.9v-4.2h0.9V2c0,0.7,0.3,1.1,0.9,1.1c0.2,0,0.4,0,0.6-0.1L-6,3.9C-6.2,3.9-6.5,4-6.7,4
				 M-31,3.5c-0.4,0.3-1,0.4-1.7,0.4c-1.1,0-1.7-0.5-1.7-1.3c0-0.7,0.5-1.1,1.4-1.2l0.4-0.1c0.5-0.1,0.7-0.2,0.7-0.4
				c0-0.3-0.3-0.5-1-0.5c-0.6,0-1.1,0.2-1.4,0.4l-0.4-0.7c0.5-0.4,1.1-0.5,1.8-0.5c1.2,0,1.9,0.6,1.9,1.4c0,0.7-0.5,1.1-1.5,1.2
				l-0.4,0.1c-0.4,0.1-0.7,0.1-0.7,0.4c0,0.3,0.3,0.5,0.8,0.5c0.5,0,1-0.2,1.3-0.4L-31,3.5L-31,3.5z M-19.3,4
				c-0.5,0-0.9-0.2-1.1-0.6v0.5h-0.9v-4.2h0.9V2c0,0.7,0.3,1.1,0.9,1.1c0.2,0,0.4,0,0.6-0.1l0.3,0.9C-18.9,3.9-19.1,4-19.3,4
				 M-27.1,3.9h-1.5v1.3h-0.9V3.9h-0.8V3h0.8V1.1c0-1,0.4-1.5,1.5-1.5c0.4,0,0.8,0.1,1.1,0.3l-0.3,0.8c-0.3-0.2-0.6-0.2-0.8-0.2
				c-0.5,0-0.6,0.3-0.6,0.7V3h1.5L-27.1,3.9L-27.1,3.9z M-40.6-0.3v2.6c0,1-0.6,1.7-1.6,1.7c-0.5,0-1.1-0.2-1.5-0.7
				C-44,3.7-44.5,4-45.1,4c-0.4,0-0.9-0.1-1.2-0.6v0.5h-0.9v-4.2h0.9V2c0,0.7,0.4,1.1,1,1.1c0.6,0,0.9-0.4,0.9-1.1v-2.3h0.9V2
				c0,0.7,0.4,1.1,1,1.1c0.6,0,0.9-0.4,0.9-1.1v-2.3L-40.6-0.3L-40.6-0.3z"/>
		</g>
		<g id="g5446">
			<g id="g3816" transform="matrix(1.25,0,0,-1.25,1103.1881,710.77105)">
				<path id="path3818" inkscape:connector-curvature="0" class="st1" d="M0,0v0.6h-0.2l-0.2-0.4l-0.2,0.4h-0.2V0h0.1v0.5l0.2-0.4
					h0.1l0.2,0.4l0-0.5H0z M-1,0v0.5h0.2v0.1h-0.5V0.5h0.2V0H-1z"/>
			</g>
			<g id="g5439">
				<path id="path3810" inkscape:connector-curvature="0" class="st2" d="M1080.6,714h-17.2v-30.9h17.2V714z"/>
				<g id="g3812" transform="matrix(1.25,0,0,-1.25,1064.4833,698.58818)">
					<path id="path3814" inkscape:connector-curvature="0" class="st3" d="M0,0c0,5,2.3,9.5,6,12.4c-2.7,2.1-6.1,3.4-9.7,3.4
						c-8.7,0-15.7-7-15.7-15.7s7-15.7,15.7-15.7c3.7,0,7,1.3,9.7,3.4C2.3-9.5,0-5,0,0"/>
				</g>
				<g id="g3820" transform="matrix(1.25,0,0,-1.25,1103.802,698.58818)">
					<path id="path3822" inkscape:connector-curvature="0" class="st4" d="M0,0c0-8.7-7-15.7-15.7-15.7c-3.7,0-7,1.3-9.7,3.4
						c3.7,2.9,6,7.3,6,12.4s-2.3,9.5-6,12.4c2.7,2.1,6.1,3.4,9.7,3.4C-7,15.7,0,8.7,0,0"/>
				</g>
			</g>
		</g>
	</g>
</g>
</svg>
