<?xml version="1.0" encoding="utf-8"?>
<!-- Generator: Adobe Illustrator 24.1.0, SVG Export Plug-In . SVG Version: 6.00 Build 0)  -->
<svg version="1.1" id="Capa_1" xmlns="http://www.w3.org/2000/svg" xmlns:xlink="http://www.w3.org/1999/xlink" x="0px" y="0px"
	 viewBox="0 0 568 228" style="enable-background:new 0 0 568 228;" xml:space="preserve">
<style type="text/css">
	.st0{fill:#FFFFFF;}
	.st1{fill:#FFCB00;}
	.st2{fill:#1D1D1B;}
</style>
<g>
	<g>
		<path class="st0" d="M213.7,105.8c0,1-0.1,1.8-0.2,2.4l-0.2,0.6c-0.9,4.1-2.4,7.3-4.6,9.6c-2.1,2.3-4.6,3.9-7.6,4.8
			c-2.9,0.9-6.3,1.3-10,1.3c-0.4,0-1,0-1.6,0c-0.6,0-1.2-0.1-1.7-0.1c-0.5,0-1.1,0-1.5-0.1c-0.5,0-0.9,0-1.1,0l-3.1,17.6
			c-0.1,0.4-0.3,0.7-0.6,1c-0.3,0.3-0.6,0.4-1,0.4h-6.7c-0.3,0-0.6-0.1-0.8-0.3c-0.2-0.2-0.3-0.5-0.3-0.8v-0.2v-0.1l8.1-46.3
			c0.2-0.6,0.4-1.1,0.8-1.4c0.4-0.3,1-0.5,1.7-0.6c3.8-0.6,8.2-0.9,13.4-0.9c5.4,0,9.5,1,12.5,3.1c2.9,2.1,4.4,5.1,4.4,9V105.8z
			 M204.4,105.8c0-2-0.7-3.5-2.1-4.3c-1.4-0.8-3.7-1.2-6.9-1.2c-0.9,0-2,0-3.4,0.1c-1.4,0.1-2.3,0.1-2.7,0.2l-2.8,16
			c2.2,0.1,4.2,0.2,6,0.2c3.4,0,6.1-0.7,7.9-2.1c1.8-1.4,3-3.4,3.6-6l0.1-0.6C204.3,107.3,204.4,106.6,204.4,105.8z"/>
		<path class="st0" d="M229.1,112.1c-1.8,0-3.6,0.2-5.3,0.5c-1.7,0.3-3.5,0.7-5.4,1.2c-0.5,0.1-0.8,0.2-1.1,0.2
			c-0.4,0-0.6-0.2-0.6-0.7c0-0.3,0.1-0.8,0.2-1.6l0.6-3.4c0-0.3,0.1-0.5,0.2-0.7c0.1-0.2,0.3-0.4,0.5-0.5c0.2-0.1,0.6-0.3,1.1-0.5
			c3.9-1.3,7.9-1.9,12.1-1.9c3.8,0,6.8,0.8,8.8,2.5c2,1.7,3,4.1,3,7.4c0,1.1-0.1,2.1-0.3,3l-4,23c-0.1,0.5-0.2,0.8-0.3,1
			c-0.1,0.2-0.4,0.3-0.8,0.5c-1.6,0.4-2.9,0.7-3.9,0.9s-2.2,0.4-3.7,0.5c-1.5,0.2-3.3,0.2-5.2,0.2c-9.4,0-14.1-3.1-14.1-9.4
			c0-0.9,0.1-1.9,0.3-3c0.3-2,0.9-3.6,1.6-5c0.8-1.4,1.8-2.5,3.1-3.3c1.3-0.9,3-1.5,5.1-1.9c2.1-0.4,4.6-0.6,7.4-0.6h5.2
			c0.5-2.7,0.7-4.2,0.7-4.7c0-1.4-0.4-2.4-1.2-2.9C232.3,112.4,231,112.1,229.1,112.1z M230.8,136.4l1.8-10h-5
			c-2.7,0-4.5,0.4-5.6,1.1c-1.1,0.7-1.8,2-2.1,4c-0.1,0.6-0.1,1.1-0.1,1.7c0,1.3,0.5,2.2,1.4,2.9c1,0.6,2.5,0.9,4.8,0.9
			C227.9,137,229.5,136.8,230.8,136.4z"/>
		<path class="st0" d="M258.6,156.6c-2.1,0-4.4-0.3-6.7-0.8c-2.4-0.5-4.4-1.2-6-2c-0.7-0.4-1.1-0.8-1.1-1.3v-0.4l0.6-3.2
			c0.1-0.8,0.5-1.2,1-1.2c0.3,0,0.5,0,0.6,0.1c1.7,0.4,3.6,0.8,5.8,1.2c2.1,0.3,4.3,0.5,6.3,0.5c2.5,0,4.4-0.4,5.5-1.3
			s1.8-2.4,2.1-4.7l0.1-0.5c-2.3,0.4-4.4,0.7-6.1,0.7c-4.2,0-7.6-1-10.1-3.1s-3.8-5.3-3.8-9.6c0-1.5,0.1-2.9,0.3-4.1l0.9-5.2
			c0.7-4.2,1.9-7.5,3.5-9.9c1.6-2.5,3.7-4.2,6.2-5.3c2.6-1.1,5.7-1.6,9.4-1.6c2.1,0,4.4,0.2,6.8,0.5s4.6,0.7,6.4,1.2
			c0.5,0.2,0.9,0.3,1.2,0.5c0.2,0.2,0.4,0.5,0.4,0.9c0,0.1,0,0.2,0,0.2s0,0.1,0,0.2l-6.2,34.8c-0.6,3.4-1.5,6-2.7,8
			c-1.2,2-2.9,3.4-5.2,4.3C265.3,156.2,262.3,156.6,258.6,156.6z M272.1,112.6c-0.8-0.2-1.7-0.3-2.8-0.4c-1.1-0.1-2.3-0.2-3.6-0.2
			c-1.8,0-3.3,0.3-4.5,1c-1.2,0.7-2.1,1.7-2.8,3.1c-0.7,1.4-1.2,3.2-1.6,5.5l-0.9,5.2c-0.3,1.9-0.5,3.3-0.5,4.2
			c0,1.8,0.5,3.2,1.4,4.1c0.9,0.9,2.5,1.3,4.6,1.3c1.7,0,3.9-0.2,6.5-0.5L272.1,112.6z"/>
		<path class="st0" d="M317.3,118c0,1.1-0.1,2.2-0.3,3.5l-1,5.4c-2.1,11.2-8.4,16.8-19,16.8c-2.9,0-5.3-0.6-7.4-1.8
			c-2.1-1.2-3.6-2.9-4.6-4.9c-1-2-1.5-4.3-1.5-6.8c0-1.2,0.1-2.3,0.3-3.3l1-5.4c1-5.6,3.1-9.8,6.3-12.6c3.2-2.8,7.4-4.2,12.7-4.2
			c3,0,5.6,0.6,7.6,1.8c2,1.2,3.5,2.8,4.5,4.8C316.8,113.3,317.3,115.5,317.3,118z M308.4,118.5c0-2-0.5-3.6-1.5-4.6
			c-1-1-2.5-1.5-4.4-1.5c-2.2,0-4.1,0.7-5.6,2.2c-1.5,1.4-2.6,3.8-3.2,7l-1,5.4c-0.2,1-0.3,2-0.3,3c0,4.1,2,6.1,5.9,6.1
			c4.7,0,7.7-3,8.8-9.1l1-5.4C308.3,120.6,308.4,119.6,308.4,118.5z"/>
		<path class="st0" d="M357.3,94.4c0,0.1,0,0.2,0,0.2c0,0.1,0,0.2,0,0.3l-0.8,4.3c-0.1,0.4-0.3,0.7-0.6,0.9c-0.3,0.3-0.7,0.4-1,0.4
			h-13.7c-2,0-3.4,0.4-4.3,1.2c-0.9,0.8-1.6,2.3-2,4.6l-1.3,7.3h18.3c0.3,0,0.6,0.1,0.8,0.4c0.2,0.2,0.3,0.5,0.3,0.8v0.1v0.1
			l-0.9,4.8c-0.1,0.4-0.3,0.7-0.6,1c-0.3,0.3-0.7,0.4-1,0.4h-18.3l-1.5,8.7c-0.1,0.9-0.2,1.6-0.2,2.2c0,1.3,0.3,2.2,1,2.8
			c0.7,0.5,1.8,0.8,3.5,0.8h13.7c0.7,0,1.1,0.4,1.1,1.1v0.2v0.1l-0.7,4.3c-0.1,0.8-0.6,1.3-1.6,1.4c-0.5,0.1-1.1,0.2-1.9,0.3
			c-0.7,0.1-1.8,0.2-3.2,0.3s-2.6,0.2-3.5,0.2c-0.9,0-2.4,0.1-4.4,0.1c-4,0-7.3-0.9-9.7-2.6c-2.4-1.7-3.7-4.4-3.7-8
			c0-1.1,0.1-2.2,0.3-3.2l4.1-23.5c0.5-2.9,1.3-5.3,2.4-7.2c1.1-1.9,2.4-3.3,3.9-4.2c1.5-1,3.2-1.6,5-1.9c1.9-0.3,4.1-0.5,6.7-0.5
			c3.6,0,6.2,0.1,7.8,0.2c1.6,0.2,3.3,0.4,4.8,0.7C356.9,93.6,357.3,94,357.3,94.4z"/>
		<path class="st0" d="M384.6,92.6v0.1l-0.7,4c-0.1,0.4-0.2,0.6-0.5,0.8c-0.3,0.2-0.5,0.3-0.7,0.3h-3c-1.2,0-2,0.1-2.6,0.3
			c-0.6,0.2-1,0.6-1.3,1.2c-0.3,0.6-0.6,1.4-0.8,2.5l-0.6,3.3h6.4c0.8,0,1.2,0.4,1.2,1.2v0.2l-0.7,4c-0.1,0.4-0.2,0.7-0.5,0.9
			c-0.3,0.2-0.6,0.4-1,0.4h-6.5l-5.6,31.7c-0.5,3-1.4,5.3-2.6,6.9c-1.2,1.6-2.7,2.6-4.4,3.1s-3.9,0.8-6.5,0.8c-1,0-2.3-0.2-3.9-0.5
			c-0.3,0-0.5-0.1-0.7-0.3c-0.2-0.2-0.3-0.4-0.3-0.6v-0.1l0.7-4c0.1-0.8,0.5-1.2,1.2-1.2h3c1.6,0,2.7-0.3,3.4-0.8
			c0.6-0.5,1.1-1.6,1.4-3.2l5.6-31.7l-5.9-1c-0.7-0.1-1.1-0.5-1.1-1.1v-0.2l0.5-3.1c0.1-0.4,0.2-0.7,0.5-1c0.3-0.3,0.6-0.4,1-0.4h6
			l0.6-3.3c0.4-2.4,1.1-4.3,1.8-5.7c0.8-1.4,1.7-2.5,2.8-3.2c1.1-0.7,2.4-1.2,3.8-1.4c1.4-0.3,3.1-0.4,5.1-0.4
			c0.9,0,2.2,0.2,3.9,0.5c0.3,0,0.5,0.1,0.7,0.3C384.5,92.1,384.6,92.3,384.6,92.6z"/>
		<path class="st0" d="M393.5,143.7c-2.2,0-4.2-0.3-5.9-0.8c-1.7-0.6-3.2-1.4-4.5-2.6c-1.3-1.2-2.2-2.6-2.9-4.3
			c-0.7-1.7-1-3.6-1-5.8c0-1.5,0.1-2.9,0.3-4l0.8-4.2c1.1-6.1,3.2-10.5,6.4-13.2c3.2-2.7,7.4-4,12.8-4c4.3,0,7.6,1.3,9.9,3.8
			c2.2,2.5,3.4,5.9,3.4,10c0,1.1-0.1,2.4-0.3,3.8l-0.6,3.2c-0.2,1.1-0.7,1.7-1.6,1.7h-22c-0.2,1.5-0.3,2.5-0.3,2.8
			c0,2,0.6,3.5,1.7,4.5c1.1,1,3.1,1.5,5.9,1.5c3.4,0,7.4-0.7,11.9-2.1c0.1,0,0.3-0.1,0.6-0.1c0.4,0,0.7,0.2,0.7,0.7
			c0,0.2,0,0.3-0.1,0.5l-0.8,4.3c-0.1,0.4-0.2,0.8-0.4,1c-0.2,0.2-0.7,0.5-1.3,0.8c-1.2,0.5-2.4,0.9-3.6,1.2
			c-1.2,0.3-2.6,0.6-4.3,0.9C396.7,143.5,395.1,143.7,393.5,143.7z M404,118.3c0-2-0.5-3.4-1.5-4.5c-1-1-2.4-1.5-4.3-1.5
			c-4.8,0-7.7,2.9-8.7,8.6h14.3C403.9,119.9,404,119,404,118.3z"/>
		<path class="st0" d="M428.3,143.7c-1.9,0-3.6-0.3-5.1-0.9c-1.5-0.6-2.9-1.5-4.1-2.7c-1.2-1.2-2.1-2.6-2.7-4.1
			c-0.6-1.6-0.9-3.3-0.9-5.2c0-0.9,0.1-2.1,0.3-3.4l1.2-6.3c0.8-4.1,2-7.3,3.7-9.7c1.7-2.4,3.8-4.1,6.2-5.1s5.1-1.5,8-1.5
			c3,0,5.8,0.7,8.6,2.1c0.8,0.4,1.2,0.9,1.2,1.3c0,0.1,0,0.2,0,0.2c0,0.1,0,0.1,0,0.2l-0.8,4c-0.1,0.8-0.4,1.2-1.1,1.2
			c-0.2,0-0.4,0-0.5-0.1c-3.4-1-6-1.5-7.7-1.5c-2.4,0-4.3,0.7-5.7,2c-1.4,1.3-2.4,3.6-3,6.9l-1.2,6.3c-0.2,1.4-0.3,2.5-0.3,3.3
			c0,1.9,0.5,3.3,1.4,4.2c1,0.9,2.5,1.3,4.5,1.3c2,0,4.8-0.5,8.3-1.6c0.1,0,0.3-0.1,0.6-0.1c0.4,0,0.7,0.2,0.7,0.7
			c0,0.2,0,0.3-0.1,0.5l-0.8,4.6c-0.1,0.4-0.2,0.8-0.5,1c-0.3,0.2-0.7,0.5-1.3,0.7c-1.1,0.5-2.5,0.9-4,1.2
			C431.7,143.5,430,143.7,428.3,143.7z"/>
		<path class="st0" d="M470.6,106.3v0.2l-0.7,4c-0.1,0.4-0.3,0.7-0.6,0.9c-0.3,0.3-0.7,0.4-1,0.4h-6.1l-3.7,21.1
			c-0.2,1.1-0.3,1.9-0.3,2.3c0,0.6,0.2,0.9,0.5,1.1c0.3,0.2,0.9,0.3,1.8,0.3h3.6c0.8,0,1.2,0.3,1.2,0.8v0.2l-0.8,4.2
			c-0.1,0.7-0.6,1.1-1.5,1.2c-2,0.3-3.5,0.5-4.6,0.5c-3.1,0-5.4-0.6-6.9-1.7s-2.3-3-2.3-5.7c0-0.8,0.1-1.9,0.3-3.3l3.7-21.1l-6.2-1
			c-0.7-0.1-1.1-0.5-1.1-1.2v-0.2l0.5-3c0.1-0.4,0.2-0.7,0.5-1c0.3-0.3,0.6-0.4,1-0.4h6.3l1-5.5c0.1-0.7,0.6-1.2,1.5-1.3l6.4-1.1
			h0.3c0.6,0,0.9,0.3,0.9,0.8v0.2l-1.3,6.9h6.1c0.4,0,0.6,0.1,0.8,0.3C470.5,105.7,470.6,106,470.6,106.3z"/>
		<path class="st0" d="M483.7,106.3v0.2l-6.2,35.2c-0.1,0.4-0.3,0.7-0.6,1s-0.7,0.4-1.1,0.4h-6.2c-0.3,0-0.6-0.1-0.8-0.3
			c-0.2-0.2-0.3-0.5-0.3-0.8v-0.3l6.2-35.2c0.1-0.4,0.2-0.7,0.5-1c0.3-0.3,0.6-0.4,1-0.4h6.2C483.3,105.2,483.7,105.5,483.7,106.3z
			 M486.3,92.6v0.2l-1.1,5.9c-0.1,0.4-0.3,0.7-0.6,1c-0.3,0.3-0.6,0.4-1,0.4h-6.5c-0.3,0-0.6-0.1-0.8-0.3c-0.3-0.2-0.4-0.5-0.4-0.8
			v-0.2l1.1-5.9c0.1-0.4,0.3-0.7,0.6-0.9c0.3-0.3,0.7-0.4,1-0.4h6.5C485.9,91.5,486.3,91.9,486.3,92.6z"/>
		<path class="st0" d="M521.4,106c0,0.3,0,0.5-0.1,0.7l-13.9,30.7c-1,2.3-2.4,3.9-4.1,4.9c-1.7,1-3.5,1.4-5.4,1.4
			c-4.5,0-6.9-2.1-7.3-6.3l-3.1-30.7v-0.1c0-0.4,0.1-0.7,0.4-1s0.5-0.4,0.9-0.4h6.5c0.7,0,1.1,0.5,1.2,1.3l1.5,28.2
			c0.1,1.1,0.4,1.7,1,1.7c0.5,0,1.1-0.6,1.5-1.7l11.4-28.2c0.3-0.9,0.9-1.3,1.6-1.3h7C521.1,105.2,521.4,105.5,521.4,106z"/>
		<path class="st0" d="M552.1,118c0,1.1-0.1,2.2-0.3,3.5l-1,5.4c-2.1,11.2-8.4,16.8-19,16.8c-2.9,0-5.3-0.6-7.4-1.8
			c-2.1-1.2-3.6-2.9-4.6-4.9c-1-2-1.5-4.3-1.5-6.8c0-1.2,0.1-2.3,0.3-3.3l1-5.4c1-5.6,3.1-9.8,6.3-12.6c3.2-2.8,7.4-4.2,12.7-4.2
			c3,0,5.6,0.6,7.6,1.8c2,1.2,3.5,2.8,4.5,4.8C551.6,113.3,552.1,115.5,552.1,118z M543.2,118.5c0-2-0.5-3.6-1.5-4.6
			c-1-1-2.5-1.5-4.4-1.5c-2.2,0-4.1,0.7-5.6,2.2c-1.5,1.4-2.6,3.8-3.2,7l-1,5.4c-0.2,1-0.3,2-0.3,3c0,4.1,2,6.1,5.9,6.1
			c4.7,0,7.7-3,8.8-9.1l1-5.4C543.1,120.6,543.2,119.6,543.2,118.5z"/>
	</g>
	<g>
		<g>
			<path class="st1" d="M101.8,68.1C80.1,56.2,60.7,49.4,49.6,49.4c-3.1,0-5.5,0.5-7.2,1.6c-9.5,6.1-15.4,43-13.1,82.4
				c1.8,31.4,8,47.9,13.3,50.5c9.4,4.5,42.7-8.2,75.8-28.9c27.8-17.5,40.3-31.2,40.3-37C158.5,107.5,133.6,85.6,101.8,68.1z"/>
			<path class="st0" d="M104.3,63.6c-11.5-6.3-50.1-26.2-64.7-17c-14.6,9.3-17.3,57.1-15.5,87c0.9,14.6,4.1,49.1,16.2,54.8
				c2,0.9,4.4,1.4,7.4,1.4c16.9,0,48.2-14.8,73.4-30.6c12.8-8.1,42.7-28.2,42.7-41.3C163.7,103,132.9,79.3,104.3,63.6z M118.3,154.9
				c-33,20.8-66.3,33.5-75.8,28.9c-5.3-2.5-11.4-19.1-13.3-50.5C26.9,94,32.8,57.1,42.4,51c1.7-1.1,4.2-1.6,7.2-1.6
				c11.1,0,30.5,6.8,52.2,18.7c31.8,17.5,56.7,39.4,56.7,49.8C158.5,123.7,146.1,137.4,118.3,154.9z"/>
			<path class="st2" d="M111,90.7c-5.2-3.2-12.6-4.8-22.1-4.8c-9,0-16.9,0.5-23.6,1.4c-1.3,0.2-2.3,0.5-3,0.9
				c-0.7,0.5-1.2,1.2-1.5,2.1l-1.8,9.1H85l1.4-8.4l16.9,20.5l-23.5,20.2l1.5-9.4H54.4l-7.9,39v0.1v0.3c0,0.5,0.2,0.9,0.5,1.2
				c0.4,0.3,0.8,0.5,1.3,0.5h11.9c0.6,0,1.2-0.2,1.7-0.6c0.5-0.4,0.9-0.9,1-1.5l5.5-23.4c0.4,0,1.1,0,1.9,0.1
				c0.9,0.1,1.8,0.1,2.7,0.1c1,0,2,0.1,3.1,0.1c1.1,0,2,0.1,2.8,0.1c6.6,0,12.4-1,17.7-2.1c16.1-3.3,22-19.5,22.1-31.9
				C118.9,98.5,116.2,93.9,111,90.7z"/>
		</g>
	</g>
</g>
</svg>
