<?xml version="1.0" encoding="utf-8"?>
<!-- Generator: Adobe Illustrator 23.0.0, SVG Export Plug-In . SVG Version: 6.00 Build 0)  -->
<svg version="1.1" id="Capa_1" xmlns="http://www.w3.org/2000/svg" xmlns:xlink="http://www.w3.org/1999/xlink" x="0px" y="0px"
	 viewBox="0 0 140 100" style="enable-background:new 0 0 140 100;" xml:space="preserve">
<style type="text/css">
	.st0{fill:#FFFFFF;}
</style>
<g>
	<path class="st0" d="M123,92.9h-0.9v-49c4.6-3.2,7.4-8.4,7.4-14c0-0.5-0.1-1-0.4-1.4L115.5,4.7c-1.1-2-3.2-3.3-5.6-3.3H30.1
		c-2.2,0-4.4,1.2-5.6,3.3L10.9,28.6c-0.2,0.5-0.4,0.9-0.4,1.4c0,5.4,2.7,10.7,7.4,14v49H17c-1.5,0-2.8,1.3-2.8,2.8s1.3,2.8,2.8,2.8
		h106c1.5,0,2.8-1.3,2.8-2.8C125.8,94.2,124.5,92.9,123,92.9z M107.5,89.4v3.5H91.1v-3.5H107.5z M107.5,54.7v29.1H91.1V54.7H107.5z
		 M112.3,50.1c-0.5-0.6-1.2-0.9-2-0.9h-22c-1.5,0-2.8,1.3-2.8,2.8v41.1H23.4V46.3c1.2,0.3,2.5,0.5,4.1,0.5c5.8,0,11-2.8,14.1-7.6
		c3.1,4.8,8.3,7.6,14.1,7.6c5.8,0,11-2.8,14.1-7.6c3.1,4.8,8.3,7.6,14.1,7.6c5.8,0,11-2.8,14.1-7.6c3.1,4.8,8.3,7.6,14.1,7.6
		c1.2,0,2.5-0.2,4.1-0.5v46.6h-3.4l0-40.9C112.9,51.3,112.7,50.7,112.3,50.1z M55.9,41.4c-5.2,0-9.7-3.5-11-8.6H67
		C65.6,37.9,61,41.4,55.9,41.4z M84.1,41.4c-5.2,0-9.7-3.5-11-8.6h22.1C93.9,37.9,89.3,41.4,84.1,41.4z M101.5,32.7H112
		c1.5,0,2.8-1.3,2.8-2.8c0-1.5-1.3-2.8-2.8-2.8H18.2L29.3,7.6c0.2-0.3,0.3-0.4,0.8-0.4h79.8c0.3,0,0.7,0.3,0.8,0.5l11.1,19.5h-2.4
		c-1.5,0-2.8,1.3-2.8,2.8s1.3,2.8,2.8,2.8h4.2c-1.3,4.9-5.9,8.5-11,8.5C107.3,41.3,102.8,37.8,101.5,32.7z M27.5,41.3
		c-5.2,0-9.7-3.5-11-8.6h22.1C37.2,37.8,32.6,41.3,27.5,41.3z"/>
	<path class="st0" d="M79.1,49.1H29.8c-1.5,0-2.8,1.3-2.8,2.8v34.7c0,1.5,1.3,2.8,2.8,2.8h49.4c1.5,0,2.8-1.3,2.8-2.8l0-34.7
		C81.9,50.3,80.6,49.1,79.1,49.1z M76.3,54.7v29.1H32.5V54.7H76.3z"/>
</g>
</svg>
