<?xml version="1.0" encoding="utf-8"?>
<!-- Generator: Adobe Illustrator 24.1.0, SVG Export Plug-In . SVG Version: 6.00 Build 0)  -->
<svg version="1.1" id="Capa_1" xmlns="http://www.w3.org/2000/svg" xmlns:xlink="http://www.w3.org/1999/xlink" x="0px" y="0px"
	 viewBox="0 0 135 100" style="enable-background:new 0 0 135 100;" xml:space="preserve">
<style type="text/css">
	.st0{fill:#FFFFFF;}
</style>
<g id="Capa_1_1_">
	<g>
		<g>
			<path class="st0" d="M125,76.7c4.1,1.2,5.9,5.8,3.5,9.3c-0.6,0.9-1.8,1.6-2.8,1.9c-10.1,3.2-20.6,5.2-31.1,6.4
				c-10.9,1.3-21.7,1.8-32.7,1.5c-15.8-0.4-31.4-2.2-46.7-6.1c-2.1-0.6-4.4-1.2-6.5-1.9c-2-0.6-3-2-3.1-4.1c0-0.4,0-0.8,0-1.1
				c0-3.9,0.6-4.8,4.3-6c0-0.6,0-1.1,0-1.7c0.2-5.7,0.1-11.6,0.8-17.3c0.8-7.2,3.3-14,7-20.3c5.5-9.4,13-16.9,22.8-22.1
				c4.2-2.2,8.7-4,13.4-5c0.8-0.2,1.3-0.6,1.5-1.5c0.8-2.7,2.9-4.5,5.7-4.5c4.3-0.1,8.7-0.1,13,0c2.8,0.1,5,1.8,5.7,4.5
				c0.2,0.9,0.7,1.3,1.6,1.5c8.8,2.1,16.6,6.1,23.4,11.9c8.1,6.9,13.8,15.4,17.3,25.4c2.5,7.4,3.3,14.9,3.1,22.6
				C125,72.2,125,74.4,125,76.7z M79.9,13.8c-0.1,0.6-0.1,0.8-0.1,0.9c-0.6,16.2-1.1,32.4-1.7,48.6c-0.1,4.5-2.6,6.9-7.1,6.9
				c-2.4,0-4.7,0-7.1,0c-4.9,0-7.3-2.4-7.4-7.4c-0.4-14.7-1-29.4-1.5-44c-0.1-1.6-0.1-3.1-0.2-5c-3.1,1.1-6.1,2.1-9,3.1
				c0.6,3.7,1,7.1,1.5,10.5c1,7,2,14,2.9,21c0.2,1.5-0.4,2.4-1.6,2.5c-1.1,0.1-2.1-0.6-2.3-2c-0.9-6.6-1.8-13.2-2.8-19.7
				c-0.4-3.4-1-6.8-1.5-10.2c-0.3,0.1-0.4,0.1-0.6,0.1c-6.4,3.5-11.8,8.1-16.3,13.7C18.6,41.4,14.6,51.2,14,62.1
				c-0.3,4.8-0.1,9.8-0.1,14.7c0.6,0,1.1,0,1.7,0c23.2,0,46.4,0,69.7,0c0.6,0,1.2,0,1.8,0.1c1.4,0.3,1.9,1.7,1.2,2.9
				c-0.6,1.1-1.8,1-2.8,1c-24.7,0-49.5,0-74.2,0c-0.6,0-1.1,0-1.7,0c-0.3,2.8-0.3,2.8,2.1,3.6c15.6,4.8,31.7,6.6,47.9,7.2
				c11.3,0.4,22.6-0.1,33.9-1.3c10-1.1,19.9-2.9,29.5-5.9c2.3-0.7,2.3-0.7,2.1-3.1c0-0.1-0.1-0.2-0.1-0.4c-0.4,0-1,0-1.5,0
				c-5,0-10.1,0-15,0c-1.5,0-2.5-0.8-2.5-2c0-1.2,0.9-2,2.5-2.1c3.3,0,6.6,0,10,0c0.8,0,1.6,0,2.8,0c-0.2-6,0-11.8-0.7-17.6
				c-1.9-15.3-9.4-27.5-21.7-36.7c-1.8-1.4-3.9-2.5-6-3.9c-0.1,0.6-0.1,0.8-0.2,1.1c-1.4,9.6-2.8,19.3-4.2,28.8
				c-0.2,1.5-1,2.4-2.2,2.3c-1.3-0.1-1.9-1.1-1.7-2.8c1-7,2-14,3-21c0.4-3.4,0.9-6.8,1.5-10.3C85.9,15.8,83,14.8,79.9,13.8z
				 M75,37.1L75,37.1c0.3-8.6,0.6-17.2,0.9-25.8C76,9,75.2,8.2,73,8.2c-3.8,0-7.4,0-11.2,0c-2.1,0-3,0.9-2.9,3.1
				c0.1,2.4,0.1,4.8,0.2,7.2c0.6,14.9,1.1,30,1.6,45c0.1,2.1,0.8,2.8,2.9,2.8c2.5,0,5,0,7.4,0c2.3,0,2.9-0.6,3-3
				C74.4,54.5,74.8,45.8,75,37.1z"/>
			<path class="st0" d="M97.3,80.9c-0.7,0-1.4,0.1-2.1,0c-1.2-0.1-2.1-1-2.1-2c0.1-1.1,0.8-1.9,1.9-2c1.5-0.1,2.9-0.1,4.4,0
				c1.1,0.1,1.9,0.8,1.8,2c0,1.2-0.8,1.8-1.9,2C98.8,81,98.1,80.9,97.3,80.9L97.3,80.9z"/>
		</g>
	</g>
</g>
</svg>
