<?xml version="1.0" encoding="utf-8"?>
<!-- Generator: Adobe Illustrator 23.0.1, SVG Export Plug-In . SVG Version: 6.00 Build 0)  -->
<svg version="1.1" id="Capa_1" xmlns="http://www.w3.org/2000/svg" xmlns:xlink="http://www.w3.org/1999/xlink" x="0px" y="0px"
	 viewBox="0 0 400 400" style="enable-background:new 0 0 400 400;" xml:space="preserve">
<style type="text/css">
	.st0{fill:#FF8000;}
</style>
<g>
	<path class="st0" d="M373.42,53.6L26.64,52.7c-6.12-0.02-10.89,4.73-10.91,10.85l-0.56,217.59c-0.02,6.12,4.73,10.89,10.85,10.91
		l347.46,0.9c6.12,0.02,10.89-4.73,10.91-10.85l0.56-217.59C384.97,59.07,380.22,53.61,373.42,53.6z M362.63,282.72l-18.36-0.05
		l0.03-10.88l18.36,0.05L362.63,282.72z M362.69,260.28l-325.7-0.84l0.48-185.63l326.38,0.84L362.69,260.28L362.69,260.28z"/>
	<polygon class="st0" points="155.07,346.78 244.15,347.01 244.19,331.37 155.11,331.14 	"/>
	
		<rect x="191.2" y="288.42" transform="matrix(2.581917e-03 -1 1 2.581917e-03 -113.3723 511.4495)" class="st0" width="17" height="48.28"/>
	<polygon class="st0" points="107.47,85.55 48.89,126.88 48.84,145.92 136.03,85.62 	"/>
	<polygon class="st0" points="351.58,86.18 160.51,85.69 48.79,163.59 48.57,247.91 351.16,248.69 	"/>
</g>
</svg>
