<svg xmlns="http://www.w3.org/2000/svg" viewBox="0 0 33.41 10.27"><defs><style>.cls-1{fill:#fff;}</style></defs><title>visa-logo-b</title><g id="Capa_2" data-name="Capa 2"><g id="Capa_1-2" data-name="Capa 1"><polygon class="cls-1" points="13.41 0.17 11.71 10.12 14.43 10.12 16.12 0.17 13.41 0.17"/><path class="cls-1" d="M21.59,4.17c-.94-.46-1.53-.77-1.52-1.23s.49-.86,1.55-.86a5.06,5.06,0,0,1,2,.38l.24.12L24.26.42A7,7,0,0,0,21.83,0c-2.68,0-4.57,1.35-4.58,3.28,0,1.43,1.35,2.22,2.37,2.7S21,6.79,21,7.22c0,.66-.85,1-1.63,1a5.68,5.68,0,0,1-2.55-.52l-.35-.16-.38,2.22a8.44,8.44,0,0,0,3,.54c2.85,0,4.7-1.33,4.72-3.4C23.87,5.74,23.15,4.88,21.59,4.17Z"/><path class="cls-1" d="M31.21.18H29.12A1.35,1.35,0,0,0,27.7,1l-4,9.12h2.84l.57-1.49h3.48c.08.34.33,1.49.33,1.49h2.52ZM27.87,6.6l1.08-2.79s.23-.57.36-.94l.18.86.63,2.87Z"/><path class="cls-1" d="M9.44.18,6.79,7,6.5,5.59h0L5.63,1A1.13,1.13,0,0,0,4.41.14L0,.07,0,.28A9.6,9.6,0,0,1,5.64,4,8.13,8.13,0,0,0,2.8,1.61l2.37,8.5H8L12.32.18Z"/></g></g></svg>